<?xml version="1.0" encoding="utf-8"?>
<!-- Generator: Adobe Illustrator 26.0.2, SVG Export Plug-In . SVG Version: 6.00 Build 0)  -->
<svg version="1.1" id="Слой_1" xmlns="http://www.w3.org/2000/svg" xmlns:xlink="http://www.w3.org/1999/xlink" x="0px" y="0px"
	 viewBox="0 0 43.23 41.52" style="enable-background:new 0 0 43.23 41.52;" xml:space="preserve">
<style type="text/css">
	.st0{display:none;fill:none;stroke:#fff;stroke-width:2;stroke-linejoin:round;stroke-miterlimit:10;}
	.st1{fill:none;stroke:#fff;stroke-width:2;stroke-linejoin:round;stroke-miterlimit:10;}
</style>
<g>
	<polygon class="st0" points="34.67,46.71 32.22,44.34 25.02,41.76 18.71,39.7 17.71,35.71 14.71,31.71 9.71,29.71 6.71,25.71 
		6.71,22.71 2.72,17.71 -0.29,16.6 -0.29,46.71 	"/>
	<path class="st1" d="M19.84,22.16c0.74,0.74,10.33,10.33,10.33,10.33"/>
	<path class="st1" d="M34.77,37.08l3.44,3.44l2.87-2.87l1.15-2.3c0,0-1.99-3.78-5.17-8.61c0.3-3.41-1.22-6.96-2.3-8.04
		c-1.88-1.88-3.54-3.54-4.59-4.59c-2.22-2.22-7.62-3.03-9.18-3.44c-0.54-0.54-1.24-1.24-1.73-1.73c-0.32-0.32-0.83-0.31-1.14,0
		l-2.3,2.3l-1.72,0.57l-1.15,1.15c-0.63,0.63-0.63,1.66,0,2.3l2.3,2.3"/>
	<polyline class="st1" points="35.34,26.17 33.62,25.6 28.45,20.44 30.17,16.42 	"/>
	<polyline class="st1" points="28.45,20.44 21.71,14.12 21.71,12.71 	"/>
	<path class="st1" d="M30.17,32.49c-1.27,1.27-1.27,3.32,0,4.59c1.27,1.27,3.32,1.27,4.59,0c1.27-1.27,1.27-3.32,0-4.59
		C33.49,31.22,31.44,31.22,30.17,32.49z"/>
	<path class="st1" d="M15.25,17.57c-1.27,1.27-1.27,3.32,0,4.59c1.27,1.27,3.32,1.27,4.59,0c1.27-1.27,1.27-3.32,0-4.59
		C18.57,16.3,16.52,16.3,15.25,17.57z"/>
	<line class="st1" x1="10.71" y1="18.71" x2="0.71" y2="8.71"/>
	<line class="st1" x1="12.71" y1="8.71" x2="4.71" y2="0.71"/>
	<line class="st1" x1="16.71" y1="6.71" x2="12.71" y2="2.71"/>
</g>
</svg>
