<?xml version="1.0" encoding="utf-8"?>
<!-- Generator: Adobe Illustrator 26.0.2, SVG Export Plug-In . SVG Version: 6.00 Build 0)  -->
<svg version="1.1" id="Слой_1" xmlns="http://www.w3.org/2000/svg" xmlns:xlink="http://www.w3.org/1999/xlink" x="0px" y="0px"
	 viewBox="0 0 120.5 80.94" style="enable-background:new 0 0 120.5 80.94;" xml:space="preserve">
<style type="text/css">
	.st0{fill:none;stroke:#dadada;stroke-width:3;stroke-linecap:round;stroke-miterlimit:10;}
</style>
<g>
	<path class="st0" d="M18.39,53.91h17.62v-3.1c0-3.12-2.29-5.76-5.37-6.21l-12.25-1.69"/>
	<path class="st0" d="M91.36,67.94v4.12c0,4.08,3.3,7.38,7.38,7.38h4.12c4.08,0,7.38-3.3,7.38-7.38v-34.2l7.57-2.77
		c0.71-0.26,1.18-0.93,1.18-1.69v-6.04c0-0.99-0.8-1.8-1.8-1.8h-8.56c-2.44,0-4.68-1.33-5.85-3.47L94.27,6.46
		C92.6,3.4,89.39,1.5,85.91,1.5H60.25H34.59c-3.49,0-6.69,1.9-8.36,4.96L17.7,22.1c-1.17,2.14-3.41,3.47-5.85,3.47H3.3
		c-0.99,0-1.8,0.8-1.8,1.8v6.04c0,0.75,0.47,1.43,1.18,1.69l7.57,2.77v34.2c0,4.08,3.3,7.38,7.38,7.38h4.12
		c4.08,0,7.38-3.3,7.38-7.38v-4.12H91.36z"/>
	<path class="st0" d="M50.36,25.72h44.12l-7.97-14.61c-0.46-0.84-1.33-1.36-2.29-1.36H60.25H36.28c-0.95,0-1.83,0.52-2.29,1.36
		l-7.97,14.61H50.36z"/>
	<path class="st0" d="M102.11,42.91L89.86,44.6c-3.09,0.45-5.37,3.09-5.37,6.21v3.1h17.62"/>
	<line class="st0" x1="47.37" y1="54.19" x2="73.13" y2="54.19"/>
	<polyline class="st0" points="73.13,54.19 74.31,43.99 60.25,43.99 46.19,43.99 47.37,54.19 	"/>
	<line class="st0" x1="29.14" y1="67.94" x2="21.42" y2="67.94"/>
	<line class="st0" x1="91.36" y1="67.94" x2="99.08" y2="67.94"/>
</g>
</svg>
