<?xml version="1.0" standalone="no"?>
<!DOCTYPE svg PUBLIC "-//W3C//DTD SVG 20010904//EN"
 "http://www.w3.org/TR/2001/REC-SVG-20010904/DTD/svg10.dtd">
<svg version="1.0" xmlns="http://www.w3.org/2000/svg"
 width="1213.000000pt" height="1576.000000pt" viewBox="0 0 1213.000000 1576.000000"
 preserveAspectRatio="xMidYMid meet">

<g transform="translate(0.000000,1576.000000) scale(0.100000,-0.100000)"
fill="#000000" stroke="none">
<path d="M5810 15753 c-647 -44 -1165 -178 -1685 -433 -1272 -624 -2064 -1866
-2254 -3535 -34 -293 -41 -443 -48 -972 l-6 -503 911 0 912 0 0 363 c0 675 34
1038 136 1440 136 542 359 949 697 1274 147 140 268 226 447 316 308 155 612
223 1056 234 666 17 1144 -109 1538 -406 98 -74 293 -268 367 -366 269 -352
453 -813 543 -1360 53 -319 66 -534 66 -1067 l0 -428 910 0 910 0 0 423 c0
440 -9 676 -36 937 -108 1077 -464 1993 -1051 2704 -120 145 -370 391 -518
509 -124 99 -373 268 -512 346 -619 349 -1377 536 -2153 529 -102 -1 -205 -3
-230 -5z"/>
<path d="M1630 9689 c-830 -94 -1486 -730 -1605 -1554 -14 -99 -15 -436 -13
-3330 l3 -3220 23 -109 c83 -392 276 -735 555 -991 260 -238 559 -386 922
-458 l110 -21 4355 -4 c3131 -2 4390 0 4480 8 323 29 639 144 900 328 123 86
345 309 433 432 179 253 294 566 327 889 14 145 14 6236 -1 6387 -64 660 -469
1226 -1073 1496 -118 53 -287 105 -436 134 -92 18 -253 19 -4500 20 -2423 1
-4439 -2 -4480 -7z m4580 -3029 c187 -23 369 -90 530 -195 95 -62 272 -238
332 -330 143 -220 203 -420 202 -680 -1 -261 -61 -457 -207 -675 -67 -99 -223
-253 -319 -315 l-77 -50 -1 -730 c0 -801 0 -796 -61 -918 -104 -207 -311 -337
-537 -337 -109 0 -171 14 -271 62 -161 77 -289 239 -326 414 -12 57 -15 197
-15 789 l0 721 -62 41 c-217 143 -379 348 -473 598 -86 227 -88 545 -7 785
187 548 724 889 1292 820z"/>
</g>
</svg>
