<?xml version="1.0" encoding="utf-8"?>
<!-- Generator: Adobe Illustrator 26.0.2, SVG Export Plug-In . SVG Version: 6.00 Build 0)  -->
<svg version="1.1" id="Слой_1" xmlns="http://www.w3.org/2000/svg" xmlns:xlink="http://www.w3.org/1999/xlink" x="0px" y="0px"
	 viewBox="0 0 44 52" style="enable-background:new 0 0 44 52;" xml:space="preserve">
<style type="text/css">
	.st0{fill:#1A1A1A;}
</style>
<path class="st0" d="M38.54,30.78c-2.65-1.51-6.34-3.22-10.58-4.13C32.7,24.41,36,19.59,36,14c0-7.72-6.28-14-14-14
	C14.28,0,8,6.28,8,14c0,5.59,3.3,10.41,8.05,12.65c-4.25,0.91-7.93,2.62-10.58,4.13C2.09,32.7,0,36.62,0,41v7c0,2.21,1.79,4,4,4h36
	c2.21,0,4-1.79,4-4v-7C44,36.62,41.91,32.7,38.54,30.78z M10,14c0-6.62,5.38-12,12-12c6.62,0,12,5.38,12,12c0,6.62-5.38,12-12,12
	C15.38,26,10,20.62,10,14z M42,48c0,1.1-0.9,2-2,2H4c-1.1,0-2-0.9-2-2v-7c0-3.67,1.71-6.92,4.45-8.48C10.08,30.46,15.72,28,22,28
	c6.28,0,11.92,2.46,15.55,4.52C40.29,34.08,42,37.33,42,41V48z"/>
</svg>
