<?xml version="1.0" encoding="utf-8"?>
<!-- Generator: Adobe Illustrator 26.0.2, SVG Export Plug-In . SVG Version: 6.00 Build 0)  -->
<svg version="1.1" id="Слой_1" xmlns="http://www.w3.org/2000/svg" xmlns:xlink="http://www.w3.org/1999/xlink" x="0px" y="0px"
	 viewBox="0 0 201.85 236.56" style="enable-background:new 0 0 201.85 236.56;" xml:space="preserve">
<style type="text/css">
	.st0{fill:none;stroke:#000000;stroke-width:20;stroke-linecap:round;stroke-linejoin:round;stroke-miterlimit:10;}
	.st1{stroke:#000000;stroke-width:5;stroke-linecap:round;stroke-linejoin:round;stroke-miterlimit:10;}
	.st2{fill:#FFFFFF;stroke:#000000;stroke-width:4;stroke-linecap:round;stroke-linejoin:round;stroke-miterlimit:10;}
	.st3{fill:#FFFFFF;}
	.st4{stroke:#000000;stroke-width:2;stroke-linecap:round;stroke-linejoin:round;stroke-miterlimit:10;}
	.st5{fill:#FFFFFF;stroke:#FFFFFF;stroke-width:18;stroke-miterlimit:10;}
</style>
<g>
	<path class="st0" d="M191.46,162.03l-17.01,32.15H23.34l-10.26-22.14c-1.16-2.27,0.41-1.86,0.41-1.86s104.53,1.82,177.56-9.62
		C191.05,160.56,192.53,160.2,191.46,162.03z"/>
	<rect x="108.85" y="2.5" class="st1" width="3.64" height="171.33"/>
	<path class="st2" d="M22.25,149.51C71.17,71.01,94.87,27.03,94.87,27.03v122.48H22.25z"/>
	<path class="st2" d="M173.95,148.86h-53c0,0,15.26-46.03,0-96.79C120.95,52.07,159.28,82.57,173.95,148.86z"/>
	<path class="st3" d="M191.46,162.03l-17.01,32.15H23.34l-10.26-22.14c-1.16-2.27,0.41-1.86,0.41-1.86s104.53,1.82,177.56-9.62
		C191.05,160.56,192.53,160.2,191.46,162.03z"/>
	<g>
		<path class="st4" d="M157.89,220.61c-12.16-0.56-16.93,1.69-27.09,5.08c-16.11,5.37-32.9,5.08-58.3-1.7
			c-25.4-6.77-39.67,0-39.67,0s17.34-3.95,40.67,4.59c19.65,7.2,40.16,10.92,59.83,0.62C148.41,221.32,157.89,220.61,157.89,220.61z
			"/>
		<path class="st5" d="M194.82,207.6c-31.76-9.51-43.84-4.18-58.41-1.57c-32.13,5.76-34.49,4.6-69.33-2.63
			c-31.86-6.61-63.01,9.2-63.01,9.2s32.4-12.74,61.97-3.73c45.17,13.76,51.04,9.9,75.04,2.15
			C168.82,202.07,194.82,207.6,194.82,207.6z"/>
		<path class="st4" d="M194.82,207.6c-31.76-9.51-43.84-4.18-58.41-1.57c-32.13,5.76-34.49,4.6-69.33-2.63
			c-31.86-6.61-63.01,9.2-63.01,9.2s32.4-12.74,61.97-3.73c45.17,13.76,51.04,9.9,75.04,2.15
			C168.82,202.07,194.82,207.6,194.82,207.6z"/>
	</g>
</g>
</svg>
