<?xml version="1.0" encoding="utf-8"?>
<!-- Generator: Adobe Illustrator 26.0.2, SVG Export Plug-In . SVG Version: 6.00 Build 0)  -->
<svg version="1.1" id="Слой_1" xmlns="http://www.w3.org/2000/svg" xmlns:xlink="http://www.w3.org/1999/xlink" x="0px" y="0px"
	 viewBox="0 0 257.76 154.52" style="enable-background:new 0 0 257.76 154.52;" xml:space="preserve">
<style type="text/css">
	.st0{fill:none;stroke:#000000;stroke-width:14;stroke-linecap:round;stroke-linejoin:round;stroke-miterlimit:10;}
	.st1{fill:#FFFFFF;stroke:#FFFFFF;stroke-width:9;stroke-linecap:round;stroke-linejoin:round;stroke-miterlimit:10;}
	.st2{fill:#FFFFFF;stroke:#FFFFFF;stroke-width:20;stroke-linecap:round;stroke-linejoin:round;stroke-miterlimit:10;}
	.st3{fill:none;stroke:#000000;stroke-width:10;stroke-linecap:round;stroke-linejoin:round;stroke-miterlimit:10;}
	.st4{fill:#FFFFFF;stroke:#FFFFFF;stroke-width:7;stroke-linecap:round;stroke-linejoin:round;stroke-miterlimit:10;}
	.st5{stroke:#000000;stroke-linecap:round;stroke-linejoin:round;stroke-miterlimit:10;}
	.st6{stroke:#000000;stroke-width:20;stroke-linecap:round;stroke-linejoin:round;stroke-miterlimit:10;}
	.st7{fill:#FFFFFF;}
	.st8{fill:none;stroke:#000000;stroke-width:4;stroke-linecap:round;stroke-linejoin:round;stroke-miterlimit:10;}
</style>
<g>
	<g>
		<path class="st0" d="M78.86,114.99c1.17,18.43-14.03,33.63-32.46,32.46c-15.2-0.96-27.53-13.3-28.48-28.5
			c-1.16-18.43,14.03-33.62,32.45-32.45C65.57,87.46,77.9,99.79,78.86,114.99z"/>
		<path class="st1" d="M50.46,121.65c-2.02,0.96-4.43,0.1-5.4-1.92l-1.16-2.15c-0.96-2.02-0.1-4.44,1.92-5.4l58.11-27.24
			c2.24-1.07,4.93-0.11,6,2.13l4.47,8.74c1.07,2.25,0.11,4.93-2.13,6L50.46,121.65z"/>
		<path d="M57.15,115.47c1,6.08-4.18,11.26-10.26,10.27c-3.68-0.6-6.66-3.57-7.26-7.25c-1-6.08,4.18-11.27,10.27-10.28
			C53.58,108.82,56.55,111.79,57.15,115.47z"/>
		<path class="st0" d="M250.69,114.99c1.16,18.43-14.03,33.62-32.46,32.46c-15.2-0.96-27.53-13.29-28.49-28.49
			c-1.16-18.43,14.03-33.62,32.46-32.46C237.4,87.46,249.73,99.8,250.69,114.99z"/>
		<line class="st2" x1="195.76" y1="71.55" x2="220.22" y2="116.98"/>
		<line class="st3" x1="195.76" y1="71.55" x2="220.22" y2="116.98"/>
		<path d="M228.98,115.47c1,6.08-4.18,11.26-10.26,10.27c-3.68-0.6-6.66-3.57-7.26-7.25c-1-6.08,4.18-11.27,10.27-10.28
			C225.41,108.82,228.38,111.79,228.98,115.47z"/>
		<path d="M50.46,121.65c-2.02,0.96-4.43,0.1-5.4-1.92l-1.16-2.15c-0.96-2.02-0.1-4.44,1.92-5.4l58.11-27.24
			c2.24-1.07,4.93-0.11,6,2.13l4.47,8.74c1.07,2.25,0.11,4.93-2.13,6L50.46,121.65z"/>
		<path class="st4" d="M102.11,118.74c2.44,0.46,4.05,2.82,3.59,5.26l-1.17,6.17c-0.46,2.44-2.82,4.05-5.26,3.59l-35.03-6.79
			c-2.44-0.46-4.05-2.82-3.59-5.26l1.17-6.17c0.46-2.44,2.82-4.05,5.26-3.59L102.11,118.74z"/>
		<path class="st5" d="M102.11,118.74c2.44,0.46,4.05,2.82,3.59,5.26l-1.17,6.17c-0.46,2.44-2.82,4.05-5.26,3.59l-35.03-6.79
			c-2.44-0.46-4.05-2.82-3.59-5.26l1.17-6.17c0.46-2.44,2.82-4.05,5.26-3.59L102.11,118.74z"/>
		<polyline class="st3" points="85.42,124.31 109.23,129.15 134.53,129.15 		"/>
	</g>
	<path class="st6" d="M195.02,11.09c-1.88-1.62-4.72-1.41-6.35,0.47l-2.63,4.22c-1.62,1.88-1.87,5.28,1.17,7.94
		c0,0,7.53,6.82,14.94,17.14l-21.96,9.53l-17.2-16.01c-4.1-3.18-7.41-2.78-7.41-2.78s-21.83,0-27.39,0
		c-5.56,0-10.59,6.09-10.59,6.09l-10.72,12.63H85.39c-11.59,0-19.77-11.87-19.77-11.87s-4.1-7.33-10.26-7.33H36.33
		c-2.89,0-4.04,3.02-4.04,3.02L10.44,69.93c-0.67,1.04-0.6,1.98,0.41,2.85l0.87,0.77c1.34,0.91,2.44,0.37,3.11-0.67l26.18-24.49
		l48.17,30.05c4.42,2.58,6.35,9,6.35,9l14.82,35.19c0,0,4.76,11.11,16.67,11.11c0,0,36.45,0,39.36,0c2.91,0,6.57-1.06,6.62-7.67
		c0.36-52.54,58.07-61.39,58.07-61.39C231.07,35.04,195.02,11.09,195.02,11.09z"/>
	<path class="st7" d="M195.02,11.09c-1.88-1.62-4.72-1.41-6.35,0.47l-2.63,4.22c-1.62,1.88-1.87,5.28,1.17,7.94
		c0,0,7.53,6.82,14.94,17.14l-21.96,9.53l-17.2-16.01c-4.1-3.18-7.41-2.78-7.41-2.78s-21.83,0-27.39,0
		c-5.56,0-10.59,6.09-10.59,6.09l-10.72,12.63H85.39c-11.59,0-19.77-11.87-19.77-11.87s-4.1-7.33-10.26-7.33H36.33
		c-2.89,0-4.04,3.02-4.04,3.02L10.44,69.93c-0.67,1.04-0.6,1.98,0.41,2.85l0.87,0.77c1.34,0.91,2.44,0.37,3.11-0.67l26.18-24.49
		l48.17,30.05c4.42,2.58,6.35,9,6.35,9l14.82,35.19c0,0,4.76,11.11,16.67,11.11c0,0,36.45,0,39.36,0c2.91,0,6.57-1.06,6.62-7.67
		c0.36-52.54,58.07-61.39,58.07-61.39C231.07,35.04,195.02,11.09,195.02,11.09z"/>
	<polyline class="st8" points="97.83,101.42 134.69,114.95 156.9,92.93 132.31,69.13 190.15,43.68 	"/>
</g>
</svg>
