<?xml version="1.0" encoding="utf-8"?>
<!-- Generator: Adobe Illustrator 26.0.2, SVG Export Plug-In . SVG Version: 6.00 Build 0)  -->
<svg version="1.1" id="Слой_1" xmlns="http://www.w3.org/2000/svg" xmlns:xlink="http://www.w3.org/1999/xlink" x="0px" y="0px"
	 viewBox="0 0 259.46 160.21" style="enable-background:new 0 0 259.46 160.21;" xml:space="preserve">
<style type="text/css">
	.st0{stroke:#000000;stroke-width:20;stroke-linecap:round;stroke-linejoin:round;stroke-miterlimit:10;}
	.st1{fill:#FFFFFF;}
	.st2{fill:#FFFFFF;stroke:#000000;stroke-width:3;stroke-linecap:round;stroke-linejoin:round;stroke-miterlimit:10;}
	.st3{fill:none;stroke:#000000;stroke-width:10;stroke-linecap:round;stroke-linejoin:round;stroke-miterlimit:10;}
	.st4{fill:#FFFFFF;stroke:#000000;stroke-width:2;stroke-linecap:round;stroke-linejoin:round;stroke-miterlimit:10;}
	.st5{fill:none;stroke:#000000;stroke-width:10;stroke-miterlimit:10;}
	.st6{fill:#FFFFFF;stroke:#FFFFFF;stroke-width:35;stroke-linecap:round;stroke-linejoin:round;stroke-miterlimit:10;}
	.st7{fill:#FFFFFF;stroke:#000000;stroke-width:12;stroke-linecap:round;stroke-linejoin:round;stroke-miterlimit:10;}
	.st8{stroke:#000000;stroke-linecap:round;stroke-linejoin:round;stroke-miterlimit:10;}
	.st9{fill:#FFFFFF;stroke:#000000;stroke-width:4;stroke-miterlimit:10;}
</style>
<g>
	<path class="st0" d="M20.69,57.44H32.3V13.69C32.3,11.65,33.96,10,36,10h56.16c2.04,0,3.37,1.38,3.69,3.69l5.21,43.74h76.73
		c2.04,0,3.69,1.65,3.69,3.7v48.42c0,2.04-1.65,3.69-3.69,3.69H20.69c-2.04,0-3.7-1.65-3.7-3.69V61.13
		C17,59.09,18.65,57.44,20.69,57.44z"/>
	<path class="st1" d="M20.69,57.44H32.3V13.69C32.3,11.65,33.96,10,36,10h56.16c2.04,0,3.37,1.38,3.69,3.69l5.21,43.74h76.73
		c2.04,0,3.69,1.65,3.69,3.7v48.42c0,2.04-1.65,3.69-3.69,3.69H20.69c-2.04,0-3.7-1.65-3.7-3.69V61.13
		C17,59.09,18.65,57.44,20.69,57.44z"/>
	<path class="st2" d="M37.8,47.36c0,2.04,1.65,3.69,3.69,3.69h18.43c2.04,0,3.69-1.65,3.69-3.69V19.59c0-2.04-1.65-3.69-3.69-3.69
		H41.49c-2.04,0-3.69,1.65-3.69,3.69V47.36z"/>
	<path class="st2" d="M94.63,59.79l-4.48-40.04c-0.32-2.32-1.5-3.85-3.54-3.85l-12.79,0c-2.04,0-3.69,1.65-3.69,3.69v44.33
		c0,2.04,1.65,3.7,3.69,3.7h15.5C91.64,67.62,95.46,66.6,94.63,59.79z"/>
	<polygon class="st3" points="229.39,118.13 215.44,74.52 207.83,74.52 207.83,146.72 254.46,146.72 254.46,139.32 	"/>
	<polygon class="st4" points="229.39,118.13 215.44,74.52 207.83,74.52 207.83,146.72 254.46,146.72 254.46,139.32 	"/>
	<path class="st3" d="M208.08,120.03c1.32,1.55,3.66,1.74,5.21,0.41l1.25-1.07c1.55-1.32,1.74-3.66,0.41-5.21l-66.58-76.2
		c-1.33-1.55-3.66-1.74-5.21-0.41l-1.25,1.07c-1.55,1.33-1.74,3.66-0.41,5.21L208.08,120.03z"/>
	<path class="st1" d="M208.08,120.03c1.32,1.55,3.66,1.74,5.21,0.41l1.25-1.07c1.55-1.32,1.74-3.66,0.41-5.21l-66.58-76.2
		c-1.33-1.55-3.66-1.74-5.21-0.41l-1.25,1.07c-1.55,1.33-1.74,3.66-0.41,5.21L208.08,120.03z"/>
	<path class="st5" d="M78.52,128.3c0,2.04,1.65,3.69,3.69,3.69h135.97c2.04,0,3.69-1.65,3.69-3.69v-5.93c0-2.04-1.65-3.69-3.69-3.69
		H82.21c-2.04,0-3.69,1.65-3.69,3.69V128.3z"/>
	<path class="st1" d="M78.52,128.3c0,2.04,1.65,3.69,3.69,3.69h135.97c2.04,0,3.69-1.65,3.69-3.69v-5.93c0-2.04-1.65-3.69-3.69-3.69
		H82.21c-2.04,0-3.69,1.65-3.69,3.69V128.3z"/>
	<g>
		<path class="st6" d="M138.07,142.71c11.74,0,21.25-9.51,21.25-21.25c0-11.74-9.51-21.25-21.25-21.25H38.75
			c-11.74,0-21.25,9.51-21.25,21.25c0,11.74,9.51,21.25,21.25,21.25H138.07z"/>
		<path class="st7" d="M138.07,142.71c11.74,0,21.25-9.51,21.25-21.25c0-11.74-9.51-21.25-21.25-21.25H38.75
			c-11.74,0-21.25,9.51-21.25,21.25c0,11.74,9.51,21.25,21.25,21.25H138.07z"/>
		<rect x="8.29" y="116.75" class="st8" width="4.94" height="9.41"/>
		
			<rect x="14" y="99.81" transform="matrix(0.7071 -0.7071 0.7071 0.7071 -66.8372 43.179)" class="st8" width="9.41" height="4.94"/>
		<rect x="33.19" y="146.12" class="st8" width="9.41" height="4.94"/>
		<rect x="8.29" y="116.75" class="st8" width="4.94" height="9.41"/>
		
			<rect x="16.24" y="135.94" transform="matrix(0.7071 -0.7071 0.7071 0.7071 -93.9669 54.4159)" class="st8" width="4.94" height="9.41"/>
		<g>
			<rect x="53.51" y="91.86" class="st8" width="9.41" height="4.94"/>
			<rect x="73.64" y="91.86" class="st8" width="9.41" height="4.94"/>
			<rect x="93.78" y="91.86" class="st8" width="9.41" height="4.94"/>
			<rect x="113.91" y="91.86" class="st8" width="9.41" height="4.94"/>
		</g>
		<g>
			<rect x="33.19" y="91.86" class="st8" width="9.41" height="4.94"/>
			<rect x="134.23" y="91.86" class="st8" width="9.41" height="4.94"/>
		</g>
		<g>
			<rect x="53.51" y="146.12" class="st8" width="9.41" height="4.94"/>
			<rect x="73.64" y="146.12" class="st8" width="9.41" height="4.94"/>
			<rect x="93.78" y="146.12" class="st8" width="9.41" height="4.94"/>
			<rect x="113.91" y="146.12" class="st8" width="9.41" height="4.94"/>
		</g>
		<rect x="134.23" y="146.12" class="st8" width="9.41" height="4.94"/>
		
			<rect x="155.65" y="97.57" transform="matrix(0.7071 -0.7071 0.7071 0.7071 -26.0051 141.7684)" class="st8" width="4.94" height="9.41"/>
		<rect x="163.6" y="116.75" class="st8" width="4.94" height="9.41"/>
		
			<rect x="153.41" y="138.17" transform="matrix(0.7071 -0.7071 0.7071 0.7071 -53.1368 153.0073)" class="st8" width="9.41" height="4.94"/>
		<g>
			
				<ellipse transform="matrix(0.9997 -0.025 0.025 0.9997 -3.0198 1.0284)" class="st9" cx="39.68" cy="121.46" rx="9.09" ry="9.09"/>
		</g>
		<g>
			<path class="st9" d="M146.23,121.46c0,5.02-4.07,9.09-9.09,9.09c-5.02,0-9.09-4.07-9.09-9.09c0-5.02,4.07-9.09,9.09-9.09
				C142.16,112.37,146.23,116.44,146.23,121.46z"/>
		</g>
	</g>
</g>
</svg>
