<?xml version="1.0" encoding="utf-8"?>
<!-- Generator: Adobe Illustrator 26.0.2, SVG Export Plug-In . SVG Version: 6.00 Build 0)  -->
<svg version="1.1" id="Слой_1" xmlns="http://www.w3.org/2000/svg" xmlns:xlink="http://www.w3.org/1999/xlink" x="0px" y="0px"
	 viewBox="0 0 245.36 102.84" style="enable-background:new 0 0 245.36 102.84;" xml:space="preserve">
<style type="text/css">
	.st0{fill:none;stroke:#000000;stroke-width:20;stroke-linecap:round;stroke-linejoin:round;stroke-miterlimit:10;}
	.st1{fill:#FFFFFF;}
	.st2{fill:#FFFFFF;stroke:#FFFFFF;stroke-width:20;stroke-linecap:round;stroke-linejoin:round;stroke-miterlimit:10;}
	.st3{fill:none;stroke:#000000;stroke-width:10;stroke-linecap:round;stroke-linejoin:round;stroke-miterlimit:10;}
	.st4{fill:#FFFFFF;stroke:#000000;stroke-width:3;stroke-linecap:round;stroke-linejoin:round;stroke-miterlimit:10;}
	.st5{fill:none;stroke:#000000;stroke-width:2;stroke-linecap:round;stroke-linejoin:round;stroke-miterlimit:10;}
</style>
<g>
	<path class="st0" d="M171.93,32.56C138.01,10.8,118.16,10,96.96,10C56.41,10,24.22,28.68,15.2,37.63c-2.9,2.87-5.08,9-5.08,12.56
		v7.63c0,0-0.68,14.25,1.19,17.81c1.87,3.56,13.57,4.78,17.47,4.78h201.59c4.31,0,4.99-4.02,4.99-6.14V61.05
		c0-4.83,0.45-12.5-22.08-18.82c-6.08-1.7-18.25-3.1-31.01-5.61C182.27,36.63,177.43,36.09,171.93,32.56z"/>
	<path class="st1" d="M171.93,32.56C138.01,10.8,118.16,10,96.96,10C56.41,10,24.22,28.68,15.2,37.63c-2.9,2.87-5.08,9-5.08,12.56
		v7.63c0,0-0.68,14.25,1.19,17.81c1.87,3.56,13.57,4.78,17.47,4.78h201.59c4.31,0,4.99-4.02,4.99-6.14V61.05
		c0-4.83,0.45-12.5-22.08-18.82c-6.08-1.7-18.25-3.1-31.01-5.61C182.27,36.63,177.43,36.09,171.93,32.56z"/>
	<path class="st2" d="M183.96,79.4c0,7.42,6.02,13.44,13.44,13.44c7.42,0,13.44-6.01,13.44-13.44c0-7.42-6.02-13.44-13.44-13.44
		C189.98,65.97,183.96,71.98,183.96,79.4z"/>
	<path class="st2" d="M36.77,78.5c-0.05,7.42,5.93,13.47,13.35,13.52c7.42,0.05,13.48-5.93,13.52-13.35
		c0.05-7.42-5.93-13.47-13.35-13.52C42.87,65.1,36.82,71.07,36.77,78.5z"/>
	<path class="st3" d="M183.96,79.4c0,7.42,6.02,13.44,13.44,13.44c7.42,0,13.44-6.01,13.44-13.44c0-7.42-6.02-13.44-13.44-13.44
		C189.98,65.97,183.96,71.98,183.96,79.4z"/>
	<path class="st3" d="M36.77,78.5c-0.05,7.42,5.93,13.47,13.35,13.52c7.42,0.05,13.48-5.93,13.52-13.35
		c0.05-7.42-5.93-13.47-13.35-13.52C42.87,65.1,36.82,71.07,36.77,78.5z"/>
	<path class="st4" d="M230.1,56.8c0,0-1.36-9.51-22.29-11.5c-4.33-0.41,9.55,8.17,13.31,10C225.06,57.23,230.48,58.38,230.1,56.8z"
		/>
	<path class="st5" d="M100.3,34.56c-5.32,5.83-0.88,27.68-0.46,34.6c0,2.39,2.45,4.33,4.83,4.33h59.38c2.39,0,4.33-1.94,4.33-4.33
		c0,0,3.89-23.86-1.94-30.66"/>
	<path class="st4" d="M162.49,41.3c0,0-81.06-4.79-95.38-5.6c-10.39-0.58-19.95-1.07-19.68-4.97c0.09-1.31,0.81-3.14,3.97-5.24
		c10.87-7.22,43.4-10.01,49.44-10.01c43.33,0,63.81,20.22,63.81,20.22S170.82,41.46,162.49,41.3z"/>
	<polyline class="st5" points="92.57,36.64 92.57,16.12 100.76,15.57 105.2,37.59 	"/>
</g>
</svg>
