<?xml version="1.0" encoding="utf-8"?>
<!-- Generator: Adobe Illustrator 26.0.2, SVG Export Plug-In . SVG Version: 6.00 Build 0)  -->
<svg version="1.1" id="Слой_1" xmlns="http://www.w3.org/2000/svg" xmlns:xlink="http://www.w3.org/1999/xlink" x="0px" y="0px"
	 viewBox="0 0 561.5 445.63" style="enable-background:new 0 0 561.5 445.63;" xml:space="preserve">
<g transform="translate(0.000000,447.000000) scale(0.100000,-0.100000)">
	<path d="M2365.04,4467.67c-380-19-667-43-952-79c-216-27-260-44-345-132c-93-98-146-202-249-488l-57-160l-189-6
		c-218-7-262-18-377-96c-85-58-148-141-176-230c-24-77-27-231-6-308c30-112,110-229,200-292l55-38l3-855l3-855l23-68
		c47-139,163-272,301-346c104-55,152-63,421-68c362-7,465,10,590,102c94,70,169,186,193,301l11,54l479,2l479,3l-59,71
		c-33,39-81,105-107,147l-48,77h-518h-518l-4-134c-3-124-5-137-33-192c-20-39-45-68-73-89l-44-30l-270-3c-318-3-336,0-425,81
		c-101,92-93,3-93,1043c0,1039-11,925,95,969l57,23l-128,4c-147,4-184,17-246,86c-47,52-62,100-55,175c6,67,32,103,102,140
		c38,21,53,22,280,22c214,0,244-2,268-18c21-13,28-15,32-5c2,7,20,69,41,138c85,291,195,559,258,624c35,37,27,35,296,66
		c816,91,1630,88,2469-12c163-19,187-24,213-46c61-51,200-389,288-698l23-80l37,18c34,17,60,19,259,16l221-3l32-33l33-32v-123
		c0-104-3-128-21-162c-32-62-68-75-204-75c-105-1-112-2-84-14c57-25,74-59,74-149c0-73,3-84,34-136c84-139,148-305,182-466
		c25-123,26-385,1-505c-29-140-67-248-134-380l-63-125l122-122c67-68,125-119,129-115c25,27,29,151,29,931v818l60,46
		c106,82,161,190,181,349c36,300-70,510-292,579c-49,15-92,19-219,19h-157l-48,138c-125,359-240,541-381,604c-69,30-472,77-924,108
		C3287.04,4464.67,2501.04,4474.67,2365.04,4467.67z"/>
	<path d="M3635.04,3076.67c-498-64-901-407-1039-884c-74-258-59-549,43-804c192-478,685-790,1201-761c231,13,433,79,615,200l69,47
		l431-431c236-236,435-430,440-430c6,0,57,47,115,105l105,105l-435,435l-434,434l30,43c174,247,255,544,225,831
		c-31,306-145,545-366,762c-198,196-425,308-698,344C3862.04,3082.67,3699.04,3084.67,3635.04,3076.67z M3972.04,2757.67
		c208-43,413-174,544-347c56-74,135-237,159-327c22-84,31-301,16-383c-80-419-405-723-823-767c-206-21-436,37-608,153
		c-66,45-186,163-236,234c-60,84-119,213-146,319c-31,123-30,323,1,439c44,167,132,315,257,436c96,91,150,129,257,179
		C3580.04,2779.67,3770.04,2800.67,3972.04,2757.67z"/>
	<path d="M3138.04,2286.67c-28-33-58-90-83-157c-14-36-25-69-25-71c0-3,221-5,490-5h490v-225v-225h-485c-267,0-485-2-485-4
		c0-16,47-109,85-167l45-69h503c557,0,534-3,563,66c22,52,20,773-2,815c-30,58-35,59-582,59
		C3189.04,2303.67,3152.04,2302.67,3138.04,2286.67z"/>
	<path d="M3433.04,1162.67c108-55,216-79,352-78c155,1,159,3,163,67l3,52h-298l-298-1L3433.04,1162.67z"/>
	<path d="M1245.04,2292.67c-37-10-73-42-86-76c-5-13-9-182-9-379c0-389,1-398,59-447l33-27h620c492,0,619,3,615,13
		c-2,6-17,60-32,120l-28,107h-509h-508v225v225h505h505l4,23c9,49,44,193,51,210c7,16-25,17-591,16
		C1544.04,2302.67,1261.04,2297.67,1245.04,2292.67z"/>
	<path d="M4380.04,616.67c-69-34-162-73-207-85c-46-13-83-26-83-30c0-14,113-19,358-16l252,3l-97,95l-98,96L4380.04,616.67z"/>
</g>
</svg>
