<?xml version="1.0" encoding="utf-8"?>
<!-- Generator: Adobe Illustrator 26.0.2, SVG Export Plug-In . SVG Version: 6.00 Build 0)  -->
<svg version="1.1" id="Слой_1" xmlns="http://www.w3.org/2000/svg" xmlns:xlink="http://www.w3.org/1999/xlink" x="0px" y="0px"
	 viewBox="0 0 511 306.07" style="enable-background:new 0 0 511 306.07;" xml:space="preserve">
<g transform="translate(0.000000,512.000000) scale(0.100000,-0.100000)">
	<path d="M460,5106c-199-44-372-202-436-397l-24-74V3590V2545l24-74c65-197,239-354,441-397c54-11,343-14,1691-14h1626l27,21
		c34,27,37,86,5,115c-21,18-66,19-1673,24c-1169,4-1660,8-1681,16c-124,46-209,121-264,234l-36,75v1045v1045l36,75
		c55,113,144,191,264,233c17,6,166,13,338,16l309,6l19,24c24,30,24,72,0,102l-19,24l-294,2C600,5118,504,5115,460,5106z"/>
	<path d="M1350,5108c-27-15-44-39-45-60c0-30,21-65,47-77c17-8,473-11,1626-11c1306,0,1611-3,1652-14c129-34,225-114,284-236l36-75
		V3590V2545l-36-75c-59-122-155-202-284-236c-35-10-124-14-305-14c-276,0-294-3-318-54c-17-35-2-78,34-95c38-17,521-15,604,3
		c202,43,376,200,441,397l24,74v1045v1045l-24,74c-65,197-239,354-441,397c-54,11-339,14-1670,14C1786,5119,1365,5116,1350,5108z"/>
	<path d="M487,4729c-50-25-99-80-113-129c-6-23-9-375-7-1031l3-995l28-42c15-23,46-54,69-69l42-28h2046h2046l42,28
		c23,15,54,46,69,69l28,42v1016v1016l-28,42c-15,23-46,54-69,69l-42,28l-2035,3l-2036,2L487,4729z M4542,4590c46-16,53-45,53-210
		v-150H2555H515v150c0,162,7,194,49,209C602,4603,4502,4603,4542,4590z M4595,3590v-480H2555H515v480v480h2040h2040V3590z
		 M4595,2800c0-165-7-194-53-210c-42-14-3932-14-3974,0c-46,16-53,45-53,210v150h2040h2040V2800z"/>
	<path d="M1249,4486c-81-35-52-156,36-156c48,0,80,33,80,83c0,35-27,77-49,77c-5,0-15,2-23,5C1286,4497,1266,4493,1249,4486z"/>
	<path d="M3796,4489c-34-14-50-39-51-80c-1-95,131-109,163-17c11,32-14,79-49,94c-18,8-35,14-36,13C3821,4499,3809,4494,3796,4489z"
		/>
	<path d="M1230,2828c-73-64,7-179,93-134c34,17,42,34,42,81C1365,2841,1283,2873,1230,2828z"/>
	<path d="M3771,2829c-19-15-26-30-26-54c0-47,8-64,42-81c38-20,84-10,105,22C3946,2799,3849,2890,3771,2829z"/>
</g>
<g>
	<g>
		<path d="M149.28,112.67h15.82l17.33,54.4l17.33-54.4h15.82l-27.15,81.55h-12L149.28,112.67z"/>
		<path d="M239.91,194.22h-15.93v-81.55h15.93V194.22z"/>
		<path d="M256.74,112.67h18.79l30.34,62.48l-1.35,1.46v-63.94h14.7v81.49h-18.9l-30.23-61.53l1.35-1.46v62.98h-14.7V112.67z"/>
	</g>
</g>
</svg>
