<?xml version="1.0" encoding="utf-8"?>
<!-- Generator: Adobe Illustrator 26.0.2, SVG Export Plug-In . SVG Version: 6.00 Build 0)  -->
<svg version="1.1" id="Слой_1" xmlns="http://www.w3.org/2000/svg" xmlns:xlink="http://www.w3.org/1999/xlink" x="0px" y="0px"
	 viewBox="0 0 124.44 85.86" style="enable-background:new 0 0 124.44 85.86;" xml:space="preserve">
<style type="text/css">
	.st0{fill:none;stroke:#344154;stroke-width:3;stroke-miterlimit:10;}
	.st1{fill:none;stroke:#344154;stroke-width:3;stroke-linecap:round;stroke-miterlimit:10;}
</style>
<g>
	<g>
		<polygon class="st0" points="104.92,31.4 86.72,29.29 86.72,3.79 104.92,1.68 		"/>
		<line class="st1" x1="104.92" y1="16.79" x2="94.16" y2="16.79"/>
		<line class="st1" x1="104.92" y1="9.15" x2="97.81" y2="9.15"/>
		<line class="st1" x1="104.92" y1="23.6" x2="98.16" y2="23.6"/>
		<path class="st0" d="M86.72,3.79h-7.05c-3.98,0-7.2,3.22-7.2,7.2v11.07c0,3.98,3.22,7.2,7.2,7.2h7.05"/>
		<path class="st0" d="M72.47,12.27H44.38c-6.49,0-12.81-2.71-18.76-5.3c-1.57-0.68-3.35-0.99-5.21-0.8
			c-4.8,0.49-8.73,4.37-9.26,9.17c-0.69,6.28,4.2,11.6,10.34,11.6c1.63,0,3.17-0.38,4.54-1.05c5.92-2.89,12.54-5.1,19.13-5.1h27.29
			V12.27z"/>
		<path class="st0" d="M25.21,16.53c0-2.05-1.66-3.71-3.71-3.71s-3.71,1.66-3.71,3.71c0,2.05,1.66,3.71,3.71,3.71
			S25.21,18.58,25.21,16.53z"/>
	</g>
	<g>
		<path id="XMLID_95_" class="st0" d="M97.91,78.26c0-3.37,2.73-6.1,6.1-6.1c3.37,0,6.1,2.73,6.1,6.1c0,3.37-2.73,6.1-6.1,6.1
			C100.64,84.36,97.91,81.63,97.91,78.26z"/>
		<path id="XMLID_94_" class="st0" d="M20.6,78.26c0-3.37,2.73-6.1,6.1-6.1c3.37,0,6.1,2.73,6.1,6.1c0,3.37-2.73,6.1-6.1,6.1
			C23.33,84.36,20.6,81.63,20.6,78.26z"/>
		<path id="XMLID_93_" class="st0" d="M122.87,72.84c0-1.03-0.43-1.72-1.04-2.11l-2.64-1.73l-0.02-3.55c0.1-0.92-0.4-1.8-1.24-2.18
			c-2.85-1.29-9.78-3.72-22.5-4.45c-4.64-0.27-9.18-1.43-13.34-3.51l-10.38-5.19c-4.1-2.05-8.61-3.11-13.19-3.11H45.24
			c-8.59,0-17.1,2.08-24.52,6.39c-4.06,2.36-9.37,4.39-15.33,4.06C4.64,57.4,4.02,58,4.02,58.75v4.67c0,0-2.52,3.23-2.52,7.86
			c0,0,0.04,9.78,7.64,9.78h6.44c-0.37-1.46-0.46-3.03-0.2-4.66c0.8-5.04,5-9.02,10.08-9.55c6.89-0.72,12.7,4.66,12.7,11.4
			c0,0.97-0.12,1.91-0.35,2.81h55.08c-0.37-1.46-0.46-3.03-0.2-4.66c0.8-5.04,5.01-9.02,10.08-9.55c6.88-0.72,12.7,4.66,12.7,11.4
			c0,0.97-0.12,1.91-0.35,2.81h6.31c0.84,0,1.52-0.69,1.51-1.53L122.87,72.84z"/>
		<polyline class="st1" points="15.74,55.75 11.15,51.16 4.12,51.16 		"/>
		<line class="st0" x1="54.95" y1="46.99" x2="54.95" y2="81.06"/>
	</g>
</g>
</svg>
