<?xml version="1.0" encoding="utf-8"?>
<!-- Generator: Adobe Illustrator 26.0.2, SVG Export Plug-In . SVG Version: 6.00 Build 0)  -->
<svg version="1.1" id="Слой_1" xmlns="http://www.w3.org/2000/svg" xmlns:xlink="http://www.w3.org/1999/xlink" x="0px" y="0px"
	 viewBox="0 0 52 52" style="enable-background:new 0 0 52 52;" xml:space="preserve">
<style type="text/css">
	.st0{fill:#1A1A1A;}
</style>
<path class="st0" d="M48,4H38V3c0-1.65-1.35-3-3-3c-1.65,0-3,1.35-3,3v1H20V3c0-1.65-1.35-3-3-3c-1.65,0-3,1.35-3,3v1H4
	C1.79,4,0,5.79,0,8v36c0,2.21,1.79,4,4,4h7c0.55,0,1-0.45,1-1c0-0.55-0.45-1-1-1H4c-1.1,0-2-0.9-2-2V14h48v30c0,1.1-0.9,2-2,2h-7
	c-0.55,0-1,0.45-1,1c0,0.55,0.45,1,1,1h7c2.21,0,4-1.79,4-4V8C52,5.79,50.21,4,48,4z M34,3c0-0.55,0.45-1,1-1c0.55,0,1,0.45,1,1v4
	c0,0.55-0.45,1-1,1c-0.55,0-1-0.45-1-1V3z M16,3c0-0.55,0.45-1,1-1c0.55,0,1,0.45,1,1v4c0,0.55-0.45,1-1,1c-0.55,0-1-0.45-1-1V3z
	 M50,12H2V8c0-1.1,0.9-2,2-2h10v1c0,1.65,1.35,3,3,3c1.65,0,3-1.34,3-3V6h12v1c0,1.65,1.35,3,3,3c1.65,0,3-1.34,3-3V6h10
	c1.1,0,2,0.9,2,2V12z M26,22c-8.27,0-15,6.73-15,15c0,8.27,6.73,15,15,15s15-6.73,15-15C41,28.73,34.27,22,26,22z M26,50
	c-7.17,0-13-5.83-13-13s5.83-13,13-13c7.17,0,13,5.83,13,13S33.17,50,26,50z M27,36.59V27c0-0.55-0.45-1-1-1c-0.55,0-1,0.45-1,1v10
	c0,0.27,0.11,0.52,0.29,0.71l5,5C30.49,42.9,30.74,43,31,43c0.26,0,0.51-0.1,0.71-0.29c0.39-0.39,0.39-1.02,0-1.41L27,36.59z"/>
</svg>
