<?xml version="1.0" encoding="utf-8"?>
<!-- Generator: Adobe Illustrator 26.0.2, SVG Export Plug-In . SVG Version: 6.00 Build 0)  -->
<svg version="1.1" id="Слой_1" xmlns="http://www.w3.org/2000/svg" xmlns:xlink="http://www.w3.org/1999/xlink" x="0px" y="0px"
	 viewBox="0 0 83.84 125.83" style="enable-background:new 0 0 83.84 125.83;" xml:space="preserve">
<style type="text/css">
	.st0{fill:none;stroke:#344154;stroke-width:3;stroke-miterlimit:10;}
</style>
<g>
	<path class="st0" d="M48.45,8.42V8.03c0-3.6-2.92-6.53-6.53-6.53l0,0c-3.6,0-6.53,2.92-6.53,6.53v0.39"/>
	<path class="st0" d="M28.08,10.24V24c0,1.3,1.05,2.35,2.35,2.35h0.94c1.18,0,2.18-0.88,2.33-2.05l0.04-0.29
		c0.54-4.1,4.03-7.17,8.17-7.17l0,0c4.14,0,7.64,3.07,8.17,7.17l0.04,0.29c0.15,1.17,1.15,2.05,2.33,2.05l0,0
		c1.3,0,2.35-1.05,2.35-2.35V10.24c0-1-0.81-1.82-1.82-1.82H29.9C28.89,8.42,28.08,9.23,28.08,10.24z"/>
	<path class="st0" d="M28.08,13.92H7.87c-3.52,0-6.37,2.85-6.37,6.37v97.67c0,3.52,2.85,6.37,6.37,6.37h68.1
		c3.52,0,6.37-2.85,6.37-6.37V20.29c0-3.52-2.85-6.37-6.37-6.37H54.82"/>
	<polyline class="st0" points="10.94,23.36 10.94,114.9 55.92,114.9 72.9,97.91 72.9,23.36 	"/>
	<polyline class="st0" points="34.69,62.33 27.2,70.26 23.58,66.64 	"/>
	<g>
		<line class="st0" x1="23.95" y1="48.21" x2="32.88" y2="39.29"/>
		<line class="st0" x1="32.88" y1="48.21" x2="23.95" y2="39.29"/>
	</g>
	<g>
		<line class="st0" x1="23.95" y1="94.2" x2="32.88" y2="85.28"/>
		<line class="st0" x1="32.88" y1="94.2" x2="23.95" y2="85.28"/>
	</g>
	<line class="st0" x1="39.25" y1="48.21" x2="65.08" y2="48.21"/>
	<line class="st0" x1="39.25" y1="70.79" x2="65.08" y2="70.79"/>
</g>
</svg>
