<?xml version="1.0" encoding="utf-8"?>
<!-- Generator: Adobe Illustrator 26.0.2, SVG Export Plug-In . SVG Version: 6.00 Build 0)  -->
<svg version="1.1" id="Слой_1" xmlns="http://www.w3.org/2000/svg" xmlns:xlink="http://www.w3.org/1999/xlink" x="0px" y="0px"
	 viewBox="0 0 99.57 116" style="enable-background:new 0 0 99.57 116;" xml:space="preserve">
<style type="text/css">
	.st0{fill:none;stroke:#344154;stroke-width:3;stroke-miterlimit:10;}
	.st1{fill:none;stroke:#344154;stroke-width:3;stroke-linecap:round;stroke-miterlimit:10;}
	.st2{fill:none;stroke:#344154;stroke-width:3;stroke-linecap:round;stroke-linejoin:round;stroke-miterlimit:10;}
</style>
<g>
	<path class="st0" d="M55.1,13.56c0-2.93-2.38-5.31-5.31-5.31s-5.31,2.38-5.31,5.31c0,2.93,2.38,5.31,5.31,5.31
		S55.1,16.5,55.1,13.56z"/>
	<line class="st0" x1="55.1" y1="13.56" x2="80.7" y2="13.56"/>
	<line class="st0" x1="44.48" y1="13.56" x2="18.87" y2="13.56"/>
	<line class="st1" x1="18.87" y1="19.86" x2="18.87" y2="7.27"/>
	<line class="st1" x1="80.7" y1="19.86" x2="80.7" y2="7.27"/>
	<path class="st0" d="M56.74,93.86H42.83c-0.89,0-1.62,0.72-1.62,1.62v13.91c0,0.89,0.72,1.62,1.62,1.62h13.91
		c0.89,0,1.62-0.72,1.62-1.62V95.48C58.36,94.59,57.63,93.86,56.74,93.86z"/>
	<path class="st0" d="M50.33,87.11h-1.08c-1.89,0-3.42,1.53-3.42,3.42v3.34h7.91v-3.34C53.74,88.64,52.21,87.11,50.33,87.11z"/>
	<polyline class="st0" points="49.79,18.87 49.79,37.57 49.79,68.41 49.79,87.11 	"/>
	<path class="st2" d="M96.48,25.63h-8.1c-0.88,0-1.59-0.71-1.59-1.59V3.09c0-0.88,0.71-1.59,1.59-1.59h8.1
		c0.88,0,1.59,0.71,1.59,1.59v20.94C98.07,24.92,97.36,25.63,96.48,25.63z"/>
	<line class="st2" x1="92.43" y1="1.5" x2="92.43" y2="9.61"/>
	<g>
		<path class="st2" d="M3.09,25.63h8.1c0.88,0,1.59-0.71,1.59-1.59V3.09c0-0.88-0.71-1.59-1.59-1.59h-8.1
			C2.21,1.5,1.5,2.21,1.5,3.09v20.94C1.5,24.92,2.21,25.63,3.09,25.63z"/>
		<line class="st2" x1="7.15" y1="1.5" x2="7.15" y2="9.61"/>
	</g>
	<line class="st0" x1="58.36" y1="102.44" x2="80.7" y2="102.44"/>
	<line class="st0" x1="41.22" y1="102.44" x2="18.87" y2="102.44"/>
	<line class="st1" x1="18.87" y1="108.73" x2="18.87" y2="96.14"/>
	<line class="st1" x1="80.7" y1="108.73" x2="80.7" y2="96.14"/>
	<g>
		<path class="st2" d="M96.48,114.5h-8.1c-0.88,0-1.59-0.71-1.59-1.59V91.97c0-0.88,0.71-1.59,1.59-1.59h8.1
			c0.88,0,1.59,0.71,1.59,1.59v20.94C98.07,113.79,97.36,114.5,96.48,114.5z"/>
		<line class="st2" x1="92.43" y1="90.37" x2="92.43" y2="98.48"/>
	</g>
	<path class="st2" d="M3.09,114.5h8.1c0.88,0,1.59-0.71,1.59-1.59V91.97c0-0.88-0.71-1.59-1.59-1.59h-8.1
		c-0.88,0-1.59,0.71-1.59,1.59v20.94C1.5,113.79,2.21,114.5,3.09,114.5z"/>
	<line class="st2" x1="7.15" y1="90.37" x2="7.15" y2="98.48"/>
	<line class="st1" x1="49.79" y1="111.01" x2="49.79" y2="102.44"/>
</g>
</svg>
