<?xml version="1.0" encoding="utf-8"?>
<!-- Generator: Adobe Illustrator 26.0.2, SVG Export Plug-In . SVG Version: 6.00 Build 0)  -->
<svg version="1.1" id="Слой_1" xmlns="http://www.w3.org/2000/svg" xmlns:xlink="http://www.w3.org/1999/xlink" x="0px" y="0px"
	 viewBox="0 0 117.39 102.91" style="enable-background:new 0 0 117.39 102.91;" xml:space="preserve">
<style type="text/css">
	.st0{fill:none;stroke:#344154;stroke-width:3;stroke-miterlimit:10;}
	.st1{fill:none;stroke:#344154;stroke-width:3;stroke-linecap:round;stroke-miterlimit:10;}
</style>
<g>
	<path class="st0" d="M70.88,80.46l2.6-0.2c1-0.08,1.75-0.95,1.67-1.96l-0.23-2.87c-0.08-1-0.96-1.75-1.96-1.67l-2.59,0.2
		c-0.75-2.09-2.01-3.86-3.59-5.21l1.12-2.35c0.43-0.91,0.05-1.99-0.86-2.43l-2.6-1.24c-0.91-0.43-1.99-0.05-2.43,0.86l-1.12,2.35
		c-2.04-0.37-4.21-0.24-6.31,0.49l-1.47-2.14c-0.57-0.83-1.7-1.04-2.53-0.47l-2.37,1.63c-0.83,0.57-1.04,1.7-0.47,2.53l1.48,2.15
		c-1.38,1.64-2.32,3.6-2.72,5.71l-2.6,0.2c-1,0.08-1.75,0.96-1.67,1.96l0.23,2.87c0.08,1,0.96,1.75,1.96,1.67l2.59-0.2
		c0.75,2.09,2.01,3.86,3.59,5.21l-1.12,2.35c-0.43,0.91-0.05,1.99,0.86,2.43l2.6,1.24c0.91,0.43,1.99,0.05,2.43-0.86l1.12-2.35
		c2.04,0.37,4.21,0.24,6.31-0.49l1.47,2.14c0.57,0.83,1.7,1.04,2.53,0.47l2.37-1.63c0.83-0.57,1.04-1.7,0.47-2.53l-1.48-2.15
		C69.54,84.53,70.48,82.56,70.88,80.46z"/>
	
		<ellipse transform="matrix(0.2915 -0.9566 0.9566 0.2915 -33.1685 111.5104)" class="st0" cx="58.69" cy="78.15" rx="23.27" ry="23.27"/>
	<line class="st1" x1="9.93" y1="51.18" x2="31.73" y2="29.38"/>
	<line class="st1" x1="5.71" y1="46.97" x2="27.52" y2="25.17"/>
	<line class="st1" x1="1.5" y1="42.76" x2="23.3" y2="20.95"/>
	<line class="st1" x1="107.46" y1="51.18" x2="85.66" y2="29.38"/>
	<line class="st1" x1="111.68" y1="46.97" x2="89.87" y2="25.17"/>
	<line class="st1" x1="115.89" y1="42.76" x2="94.09" y2="20.95"/>
	<polyline class="st0" points="104.99,31.85 115.05,21.79 94.76,1.5 58.69,1.5 22.63,1.5 2.34,21.79 12.4,31.85 	"/>
	<path class="st0" d="M52.99,55.59L34.27,36.87L17.42,53.73l18.72,18.72C38.22,64.18,44.73,57.67,52.99,55.59z"/>
	<path class="st0" d="M81.25,72.44l18.72-18.72L83.12,36.87L64.4,55.59C72.66,57.67,79.17,64.18,81.25,72.44z"/>
	<circle class="st1" cx="58.69" cy="18.95" r="9"/>
	<path class="st1" d="M61.99,18.95c0-1.82-1.48-3.3-3.3-3.3s-3.3,1.48-3.3,3.3c0,1.82,1.48,3.3,3.3,3.3S61.99,20.77,61.99,18.95z"/>
	<line class="st1" x1="67.69" y1="17.46" x2="70.47" y2="39.96"/>
	<line class="st1" x1="49.69" y1="17.46" x2="46.92" y2="39.96"/>
</g>
</svg>
