<?xml version="1.0" encoding="utf-8"?>
<!-- Generator: Adobe Illustrator 26.0.2, SVG Export Plug-In . SVG Version: 6.00 Build 0)  -->
<svg version="1.1" id="Слой_1" xmlns="http://www.w3.org/2000/svg" xmlns:xlink="http://www.w3.org/1999/xlink" x="0px" y="0px"
	 viewBox="0 0 88.92 109" style="enable-background:new 0 0 88.92 109;" xml:space="preserve">
<style type="text/css">
	.st0{fill:none;stroke:#344154;stroke-width:3;stroke-miterlimit:10;}
</style>
<g>
	<line class="st0" x1="12.17" y1="53.5" x2="60.83" y2="53.5"/>
	<path class="st0" d="M71.5,107.5h-70l0,0c0-7.18,5.82-13,13-13h44C65.68,94.5,71.5,100.32,71.5,107.5L71.5,107.5z"/>
	<path class="st0" d="M51,1.5H22c-5.43,0-9.83,4.4-9.83,9.83V94.5h48.67V11.33C60.83,5.9,56.43,1.5,51,1.5z"/>
	<rect x="20.67" y="12.5" class="st0" width="31.67" height="18.11"/>
	<g>
		<line class="st0" x1="19.17" y1="39.38" x2="22.17" y2="39.38"/>
		<line class="st0" x1="27.08" y1="39.38" x2="30.08" y2="39.38"/>
		<line class="st0" x1="35" y1="39.38" x2="38" y2="39.38"/>
		<line class="st0" x1="42.92" y1="39.38" x2="45.92" y2="39.38"/>
		<line class="st0" x1="50.83" y1="39.38" x2="53.83" y2="39.38"/>
	</g>
	<path class="st0" d="M60.83,27.38h1.79c4.9,0,8.88,3.97,8.88,8.88l0,0v38.54c0,4.4,3.56,7.96,7.96,7.96h0
		c4.4,0,7.96-3.56,7.96-7.96V27.38v-6.22c0-3.06-1.57-5.9-4.15-7.53L69.25,4.75"/>
	<path class="st0" d="M77.84,10.39v8.38c0,3.38,1.85,6.48,4.82,8.08l4.76,2.57"/>
</g>
</svg>
