<?xml version="1.0" encoding="utf-8"?>
<!-- Generator: Adobe Illustrator 26.0.2, SVG Export Plug-In . SVG Version: 6.00 Build 0)  -->
<svg version="1.1" id="Слой_1" xmlns="http://www.w3.org/2000/svg" xmlns:xlink="http://www.w3.org/1999/xlink" x="0px" y="0px"
	 viewBox="0 0 52 52" style="enable-background:new 0 0 52 52;" xml:space="preserve">
<style type="text/css">
	.st0{fill:#1A1A1A;}
</style>
<path class="st0" d="M39,8c-2.76,0-5,2.24-5,5c0,2.76,2.24,5,5,5c2.76,0,5-2.24,5-5C44,10.24,41.76,8,39,8z M39,16
	c-1.65,0-3-1.35-3-3c0-1.65,1.35-3,3-3c1.65,0,3,1.35,3,3C42,14.65,40.65,16,39,16z M32.83,0h-0.21c-3.25,0-7.18,2.89-9.78,5.59
	C19.71,8.84,18,12,18,14.83c0,1.6,0.76,3.51,2.08,5.67L0.29,40.29C0.11,40.48,0,40.73,0,41v8c0,0.13,0.03,0.26,0.08,0.38
	c0.05,0.12,0.12,0.23,0.22,0.33l2,2C2.48,51.89,2.73,52,3,52h8c0.27,0,0.52-0.11,0.71-0.29l2-2C13.89,49.52,14,49.27,14,49v-3h3
	c0.55,0,1-0.45,1-1v-3h3c0.55,0,1-0.45,1-1v-3h3c0.27,0,0.52-0.1,0.71-0.29l5.79-5.79c2.17,1.32,4.07,2.02,5.67,2.08l0.21,0
	c0,0,0,0,0,0c3.25,0,7.18-2.89,9.78-5.59c3.13-3.25,4.94-6.71,4.84-9.24C51.74,12.45,39.55,0.26,32.83,0z M45.72,27.03
	C42.85,30,39.5,32,37.38,32l-0.13,0c-1.38-0.05-3.23-0.81-5.35-2.19c-0.4-0.26-0.92-0.21-1.25,0.13L24.59,36H21c-0.55,0-1,0.45-1,1
	v3h-3c-0.55,0-1,0.45-1,1v3h-3c-0.55,0-1,0.45-1,1v3.59L10.59,50H3.41l-1-1l21.29-21.29c0.39-0.39,0.39-1.02,0-1.41
	c-0.39-0.39-1.02-0.39-1.41,0L2,46.59v-5.17l20.06-20.06c0.33-0.33,0.39-0.86,0.13-1.25c-1.38-2.12-2.14-3.96-2.19-5.35
	c-0.08-1.94,1.61-4.99,4.28-7.77C27.15,4,30.5,2,32.62,2l0.13,0C38.49,2.23,49.78,13.51,50,19.25
	C50.07,21.19,48.39,24.24,45.72,27.03z"/>
</svg>
