<?xml version="1.0" encoding="utf-8"?>
<!-- Generator: Adobe Illustrator 26.0.2, SVG Export Plug-In . SVG Version: 6.00 Build 0)  -->
<svg version="1.1" id="Слой_1" xmlns="http://www.w3.org/2000/svg" xmlns:xlink="http://www.w3.org/1999/xlink" x="0px" y="0px"
	 viewBox="0 0 143.8 76.55" style="enable-background:new 0 0 143.8 76.55;" xml:space="preserve">
<style type="text/css">
	.st0{fill:none;stroke:#344154;stroke-width:3;stroke-linecap:round;stroke-miterlimit:10;}
	.st1{fill:none;stroke:#344154;stroke-width:3;stroke-miterlimit:10;}
</style>
<g>
	<g>
		<polyline class="st0" points="13.36,21.99 9.54,18.16 3.68,18.16 		"/>
		
			<ellipse id="XMLID_97_" transform="matrix(0.7071 -0.7071 0.7071 0.7071 -3.9228 72.9955)" class="st1" cx="86.15" cy="41.23" rx="8.02" ry="8.02"/>
		
			<ellipse id="XMLID_96_" transform="matrix(0.229 -0.9734 0.9734 0.229 -22.1034 54.5604)" class="st1" cx="23.39" cy="41.23" rx="8.02" ry="8.02"/>
		<path class="st1" d="M93.95,43.08h2.23h5.26c0.7,0,1.27-0.57,1.26-1.27l-0.06-5.58c0-0.86-0.36-1.43-0.87-1.76l-2.2-1.45
			l-0.01-2.96c0.08-0.77-0.33-1.5-1.03-1.82c-2.37-1.08-8.15-3.1-18.75-3.71c-3.87-0.22-7.65-1.19-11.12-2.92l-8.65-4.33
			c-3.41-1.71-7.18-2.6-10.99-2.6H37.95c-7.15,0-14.25,1.73-20.44,5.32c-3.38,1.96-7.81,3.66-12.77,3.38
			c-0.63-0.03-1.14,0.47-1.14,1.09v3.89c0,0-2.1,2.69-2.1,6.55c0,0,0.03,8.15,6.37,8.15h5.36h2.36"/>
		<line class="st1" x1="31.76" y1="43.08" x2="77.66" y2="43.08"/>
	</g>
	<path class="st1" d="M107.29,12.87V3.98c0-1.37,1.11-2.48,2.48-2.48l0,0c1.37,0,2.48,1.11,2.48,2.48v8.89"/>
	<polyline class="st1" points="141.72,46.61 123.29,46.61 123.29,12.87 	"/>
	<line class="st1" x1="8.68" y1="64.47" x2="26.85" y2="64.47"/>
	<circle class="st1" cx="37.49" cy="64.89" r="10.16"/>
	<path class="st1" d="M38.35,64.89c0-0.48-0.39-0.87-0.87-0.87c-0.48,0-0.87,0.39-0.87,0.87c0,0.48,0.39,0.87,0.87,0.87
		C37.96,65.76,38.35,65.37,38.35,64.89z"/>
	<path class="st1" d="M66,64.89c0-0.48-0.39-0.87-0.87-0.87c-0.48,0-0.87,0.39-0.87,0.87c0,0.48,0.39,0.87,0.87,0.87
		C65.61,65.76,66,65.37,66,64.89z"/>
	<path class="st1" d="M123.74,64.89c0-0.48-0.39-0.87-0.87-0.87c-0.48,0-0.87,0.39-0.87,0.87c0,0.48,0.39,0.87,0.87,0.87
		C123.35,65.76,123.74,65.37,123.74,64.89z"/>
	<circle class="st1" cx="65.13" cy="64.89" r="10.16"/>
	<path class="st1" d="M23.39,49.26H10.18v10.63h18.48c1.75-3.08,5.04-5.16,8.83-5.16c3.79,0,7.09,2.08,8.83,5.16h9.98
		c1.75-3.08,5.04-5.16,8.83-5.16c3.79,0,7.09,2.08,8.83,5.16h40.08c1.75-3.08,5.04-5.16,8.83-5.16c3.79,0,7.09,2.08,8.83,5.16h10.59
		v-2.01c0-12.34-2.05-24.59-6.08-36.26c-2.08-5.65-7.69-8.76-12.93-8.76h-11.05v29.48c0,3.82-3.1,6.91-6.91,6.91H86.15"/>
	<circle class="st1" cx="122.87" cy="64.89" r="10.16"/>
</g>
</svg>
