<?xml version="1.0" encoding="utf-8"?>
<!-- Generator: Adobe Illustrator 26.0.2, SVG Export Plug-In . SVG Version: 6.00 Build 0)  -->
<svg version="1.1" id="Слой_1" xmlns="http://www.w3.org/2000/svg" xmlns:xlink="http://www.w3.org/1999/xlink" x="0px" y="0px"
	 viewBox="0 0 133.16 90.36" style="enable-background:new 0 0 133.16 90.36;" xml:space="preserve">
<style type="text/css">
	.st0{fill:none;stroke:#344154;stroke-width:3;stroke-linecap:round;stroke-miterlimit:10;}
	.st1{fill:none;stroke:#344154;stroke-width:3;stroke-linecap:round;stroke-linejoin:round;stroke-miterlimit:10;}
	.st2{fill:none;stroke:#344154;stroke-width:3;stroke-miterlimit:10;}
</style>
<g>
	<g>
		<path class="st0" d="M60,42.72h9.22V41.1c0-1.63-1.2-3.02-2.81-3.25l-6.06-0.88"/>
		<path class="st0" d="M98.2,50.07v4.48c0,2.13,1.73,3.86,3.86,3.86h2.16c2.13,0,3.86-1.73,3.86-3.86V34.33l3.96-1.45
			c0.37-0.14,0.62-0.49,0.62-0.88v-3.16c0-0.52-0.42-0.94-0.94-0.94h-4.48c-1.28,0-2.45-0.7-3.06-1.82l-4.46-8.18
			c-0.87-1.6-2.55-2.6-4.38-2.6H81.91H68.48c-1.82,0-3.5,1-4.38,2.6l-4.46,8.18c-0.61,1.12-1.78,1.82-3.06,1.82H52.1
			c-0.52,0-0.94,0.42-0.94,0.94V32c0,0.39,0.25,0.75,0.62,0.88l3.96,1.45v20.22c0,2.13,1.73,3.86,3.86,3.86h2.16
			c2.13,0,3.86-1.73,3.86-3.86v-4.48H98.2z"/>
		<polyline class="st0" points="64,27.97 76.74,27.97 99.83,27.97 		"/>
		<path class="st0" d="M103.47,36.97l-6.06,0.88c-1.61,0.24-2.81,1.62-2.81,3.25v1.62h9.22"/>
		<line class="st0" x1="75.17" y1="42.87" x2="88.65" y2="42.87"/>
		<polyline class="st0" points="88.65,42.87 89.27,37.53 81.91,37.53 74.56,37.53 75.17,42.87 		"/>
		<line class="st0" x1="65.63" y1="50.07" x2="61.59" y2="50.07"/>
		<line class="st0" x1="98.2" y1="50.07" x2="103.4" y2="50.07"/>
		<line class="st0" x1="65.63" y1="50.07" x2="60.43" y2="50.07"/>
	</g>
	<line id="XMLID_92_" class="st1" x1="20.64" y1="40.68" x2="37.98" y2="40.68"/>
	<line id="XMLID_91_" class="st1" x1="20.64" y1="48.08" x2="37.98" y2="48.08"/>
	<line id="XMLID_90_" class="st1" x1="20.64" y1="55.49" x2="37.98" y2="55.49"/>
	<path id="XMLID_89_" class="st1" d="M127.07,88.86H6.08c-2.53,0-4.58-2.05-4.58-4.58V78.8h130.16v5.47
		C131.66,86.81,129.6,88.86,127.07,88.86z"/>
	<path id="XMLID_88_" class="st1" d="M118.86,1.5H14.3c-2.39,0-4.32,1.93-4.32,4.32V78.8h113.2V5.82
		C123.18,3.43,121.24,1.5,118.86,1.5z"/>
	<rect x="20.18" y="15.31" class="st2" width="18.25" height="17.64"/>
</g>
</svg>
