<?xml version="1.0" encoding="utf-8"?>
<!-- Generator: Adobe Illustrator 26.0.2, SVG Export Plug-In . SVG Version: 6.00 Build 0)  -->
<svg version="1.1" id="Слой_1" xmlns="http://www.w3.org/2000/svg" xmlns:xlink="http://www.w3.org/1999/xlink" x="0px" y="0px"
	 viewBox="0 0 132.83 106.96" style="enable-background:new 0 0 132.83 106.96;" xml:space="preserve">
<style type="text/css">
	.st0{fill:none;stroke:#344154;stroke-width:3;stroke-linecap:round;stroke-miterlimit:10;}
	.st1{fill:none;stroke:#344154;stroke-width:3;stroke-miterlimit:10;}
	.st2{fill:#344154;}
</style>
<g>
	<g>
		<polyline class="st0" points="76.79,71.53 89.82,71.53 117.33,71.53 		"/>
	</g>
	<path class="st1" d="M56.18,3.81l-3.32,3.32L51.4,5.67c-3.81-3.81-9.99-3.81-13.8,0l-1.46,1.46l-3.32-3.32
		c-3.08-3.08-8.09-3.08-11.17,0l-4.12,4.12L29,19.04h15.5H60L71.47,7.93l-4.12-4.12C64.27,0.73,59.26,0.73,56.18,3.81z"/>
	<path class="st0" d="M115.21,96.16v4.99c0,2.38,1.93,4.3,4.3,4.3h2.41c2.38,0,4.3-1.93,4.3-4.3V78.62l4.42-1.61
		c0.41-0.15,0.69-0.54,0.69-0.98V72.5c0-0.58-0.47-1.05-1.05-1.05h-4.99c-1.42,0-2.73-0.78-3.41-2.02l-4.97-9.12
		c-0.97-1.78-2.84-2.9-4.88-2.9H97.06H82.1c-2.03,0-3.9,1.11-4.88,2.9l-4.97,9.12c-0.68,1.25-1.99,2.02-3.41,2.02h-4.99
		c-0.58,0-1.05,0.47-1.05,1.05v3.52c0,0.44,0.27,0.83,0.69,0.98l4.42,1.61v22.54c0,2.38,1.93,4.3,4.3,4.3h2.41
		c2.38,0,4.3-1.93,4.3-4.3v-4.99H115.21z"/>
	<path class="st0" d="M72.65,87.98h10.28v-1.81c0-1.82-1.33-3.36-3.13-3.62l-6.75-0.98"/>
	<path class="st0" d="M121.09,81.56l-6.75,0.98c-1.8,0.26-3.13,1.81-3.13,3.62v1.81h10.28"/>
	<line class="st0" x1="89.55" y1="88.14" x2="104.58" y2="88.14"/>
	<polyline class="st0" points="104.58,88.14 105.26,82.19 97.06,82.19 88.87,82.19 89.55,88.14 	"/>
	<line class="st0" x1="78.92" y1="96.16" x2="74.41" y2="96.16"/>
	<line class="st0" x1="115.21" y1="96.16" x2="121.01" y2="96.16"/>
	<line class="st0" x1="78.92" y1="96.16" x2="73.12" y2="96.16"/>
	<g>
		<path class="st2" d="M41.76,81.06c-0.94-0.05-1.76-0.25-2.44-0.43c-0.69-0.18-1.36-0.36-2.04-0.68l0.03-3.77
			c1.18,0.44,1.66,0.59,2.86,0.86c1.34,0.31,2.27,0.4,3.18,0.4c1.59,0,2.87-0.43,3.83-1.3c0.97-0.87,1.45-1.98,1.45-3.32
			c0-0.84-0.14-1.59-0.42-2.24c-0.28-0.65-0.66-1.18-1.14-1.58c-0.48-0.4-1.58-1-3.29-1.8l-2.41-1.12
			c-2.04-0.95-3.46-2.08-4.27-3.38c-0.81-1.31-1.21-2.87-1.21-4.71c0-1.89,0.59-3.53,1.78-4.93c1.19-1.4,2.39-1.99,4.07-2.49
			l0.02-3.42h3.89l-0.02,3.21c1.85,0.05,3.3,0.64,4.37,1.25l0,3.8c-0.54-0.39-1.37-0.77-2.49-1.14c-1.11-0.37-2.15-0.55-3.1-0.55
			c-1.39,0-2.48,0.39-3.27,1.18c-0.8,0.79-1.19,1.8-1.19,3.04c0,0.76,0.14,1.45,0.43,2.08c0.28,0.62,0.69,1.16,1.22,1.59
			c0.53,0.44,1.56,1.02,3.1,1.75l1.88,0.88c2.12,0.99,3.67,2.21,4.65,3.64c0.98,1.43,1.47,3.27,1.47,5.51
			c0,1.85-0.66,3.47-1.97,4.86c-1.31,1.39-2.71,2.16-5.04,2.56l-0.01,3.46h-3.93L41.76,81.06z"/>
	</g>
	<path class="st1" d="M73.12,105.46c0,0-14.6,0-28.81,0c-35.73,0-42.92-17.33-42.8-31.57c0.07-8.97,3.2-17.65,8.55-24.84
		l17.19-23.13h17.06h17.06"/>
	<path class="st1" d="M84.15,57.41c-1.32-2.95-2.96-5.75-4.91-8.36L62.05,25.92"/>
	<path class="st1" d="M62.54,19.04H26.07c-1.34,0-2.44,1.1-2.44,2.44v2c0,1.34,1.1,2.44,2.44,2.44h36.47c1.34,0,2.44-1.1,2.44-2.44
		v-2C64.98,20.14,63.88,19.04,62.54,19.04z"/>
	<path class="st1" d="M56.18,3.81l-3.32,3.32L51.4,5.67c-3.81-3.81-9.99-3.81-13.8,0l-1.46,1.46l-3.32-3.32
		c-3.08-3.08-8.09-3.08-11.17,0l-4.12,4.12L29,19.04h15.5H60L71.47,7.93l-4.12-4.12C64.27,0.73,59.26,0.73,56.18,3.81z"/>
</g>
</svg>
