<?xml version="1.0" encoding="utf-8"?>
<!-- Generator: Adobe Illustrator 26.0.2, SVG Export Plug-In . SVG Version: 6.00 Build 0)  -->
<svg version="1.1" id="Слой_1" xmlns="http://www.w3.org/2000/svg" xmlns:xlink="http://www.w3.org/1999/xlink" x="0px" y="0px"
	 viewBox="0 0 113.75 104.69" style="enable-background:new 0 0 113.75 104.69;" xml:space="preserve">
<style type="text/css">
	.st0{fill:none;stroke:#344154;stroke-width:3;stroke-linecap:round;stroke-linejoin:round;stroke-miterlimit:10;}
	.st1{fill:none;stroke:#344154;stroke-width:3;stroke-miterlimit:10;}
</style>
<g>
	
		<ellipse transform="matrix(0.9871 -0.1602 0.1602 0.9871 -8.3763 9.8451)" class="st0" cx="56.88" cy="56.88" rx="46.31" ry="46.31"/>
	<path class="st0" d="M112.25,56.88c0-30.58-24.79-55.38-55.38-55.38S1.5,26.29,1.5,56.88"/>
	<path class="st0" d="M61.45,56.88c0-2.52-2.05-4.57-4.57-4.57c-2.52,0-4.57,2.05-4.57,4.57c0,2.52,2.05,4.57,4.57,4.57
		C59.4,61.45,61.45,59.4,61.45,56.88z"/>
	<line class="st0" x1="56.88" y1="24.57" x2="56.88" y2="17.57"/>
	<line class="st0" x1="46.89" y1="26.16" x2="44.73" y2="19.5"/>
	<line class="st0" x1="37.89" y1="30.74" x2="33.78" y2="25.08"/>
	<line class="st0" x1="30.74" y1="37.89" x2="25.08" y2="33.78"/>
	<line class="st0" x1="26.15" y1="46.89" x2="19.5" y2="44.73"/>
	<line class="st0" x1="24.57" y1="56.88" x2="17.57" y2="56.88"/>
	<line class="st0" x1="26.15" y1="66.86" x2="19.5" y2="69.02"/>
	<line class="st0" x1="30.74" y1="75.86" x2="25.08" y2="79.98"/>
	<line class="st0" x1="83.01" y1="75.86" x2="88.67" y2="79.98"/>
	<line class="st0" x1="87.6" y1="66.86" x2="94.26" y2="69.02"/>
	<line class="st0" x1="89.18" y1="56.88" x2="96.18" y2="56.88"/>
	<line class="st0" x1="87.6" y1="46.89" x2="94.26" y2="44.73"/>
	<line class="st0" x1="83.01" y1="37.89" x2="88.67" y2="33.78"/>
	<line class="st0" x1="75.86" y1="30.74" x2="79.98" y2="25.08"/>
	<line class="st0" x1="66.86" y1="26.16" x2="69.02" y2="19.5"/>
	<line class="st0" x1="56.88" y1="52.31" x2="56.88" y2="33.78"/>
	<g>
		<path class="st0" d="M50.59,63.16c1.61,1.61,3.83,2.6,6.28,2.6c2.45,0,4.67-0.99,6.28-2.6"/>
	</g>
	<g>
		<rect x="42.88" y="77.01" class="st1" width="28" height="13.23"/>
		<g>
			<line class="st1" x1="50.2" y1="82.13" x2="50.2" y2="85.13"/>
			<line class="st1" x1="56.88" y1="82.13" x2="56.88" y2="85.13"/>
			<line class="st1" x1="63.56" y1="82.13" x2="63.56" y2="85.13"/>
		</g>
	</g>
</g>
</svg>
