<?xml version="1.0" encoding="utf-8"?>
<!-- Generator: Adobe Illustrator 26.0.2, SVG Export Plug-In . SVG Version: 6.00 Build 0)  -->
<svg version="1.1" id="Слой_1" xmlns="http://www.w3.org/2000/svg" xmlns:xlink="http://www.w3.org/1999/xlink" x="0px" y="0px"
	 viewBox="0 0 151.92 106.96" style="enable-background:new 0 0 151.92 106.96;" xml:space="preserve">
<style type="text/css">
	.st0{fill:none;stroke:#344154;stroke-width:3;stroke-miterlimit:10;}
	.st1{fill:none;stroke:#515151;stroke-width:2;stroke-linejoin:round;stroke-miterlimit:10;}
</style>
<g>
	<g>
		<path d="M41.76,81.06c-0.94-0.05-1.76-0.25-2.44-0.43c-0.69-0.18-1.36-0.36-2.04-0.68l0.03-3.77c1.18,0.44,1.66,0.59,2.86,0.86
			c1.34,0.31,2.27,0.4,3.18,0.4c1.59,0,2.87-0.43,3.83-1.3c0.97-0.87,1.45-1.98,1.45-3.32c0-0.84-0.14-1.59-0.42-2.24
			c-0.28-0.65-0.66-1.18-1.14-1.58c-0.48-0.4-1.58-1-3.29-1.8l-2.41-1.12c-2.04-0.95-3.46-2.08-4.27-3.38
			c-0.81-1.31-1.21-2.87-1.21-4.71c0-1.89,0.59-3.53,1.78-4.93c1.19-1.4,2.39-1.99,4.07-2.49l0.02-3.42h3.89l-0.02,3.21
			c1.85,0.05,3.3,0.64,4.37,1.25l0,3.8c-0.54-0.39-1.37-0.77-2.49-1.14c-1.11-0.37-2.15-0.55-3.1-0.55c-1.39,0-2.48,0.39-3.27,1.18
			c-0.8,0.79-1.19,1.8-1.19,3.04c0,0.76,0.14,1.45,0.43,2.08c0.28,0.62,0.69,1.16,1.22,1.59c0.53,0.44,1.56,1.02,3.1,1.75l1.88,0.88
			c2.12,0.99,3.67,2.21,4.65,3.64c0.98,1.43,1.47,3.27,1.47,5.51c0,1.85-0.66,3.47-1.97,4.86c-1.31,1.39-2.71,2.16-5.04,2.56
			l-0.01,3.46h-3.93L41.76,81.06z"/>
	</g>
	<path class="st0" d="M73.12,105.46c0,0-14.6,0-28.81,0c-35.73,0-42.92-17.33-42.8-31.57c0.07-8.97,3.2-17.65,8.55-24.84
		l17.19-23.13h17.06h17.06"/>
	<path class="st0" d="M84.15,57.41c-1.32-2.95-2.96-5.75-4.91-8.36L62.05,25.92"/>
	<path class="st0" d="M62.54,19.04H26.07c-1.34,0-2.44,1.1-2.44,2.44v2c0,1.34,1.1,2.44,2.44,2.44h36.47c1.34,0,2.44-1.1,2.44-2.44
		v-2C64.98,20.14,63.88,19.04,62.54,19.04z"/>
	<path class="st0" d="M56.18,3.81l-3.32,3.32L51.4,5.67c-3.81-3.81-9.99-3.81-13.8,0l-1.46,1.46l-3.32-3.32
		c-3.08-3.08-8.09-3.08-11.17,0l-4.12,4.12L29,19.04h15.5H60L71.47,7.93l-4.12-4.12C64.27,0.73,59.26,0.73,56.18,3.81z"/>
</g>
<g>
	<path class="st1" d="M82.39,94.51c2.76,0,38.54,0,38.54,0"/>
	<path class="st1" d="M138.07,94.51h12.85l-4.28-10.71l2.14-6.42l-4.28-2.14l-2.14-4.28l-8.57,2.14l-4.28-6.42l-6.42,2.14
		c-5.8-6.93-15.26-10.71-19.27-10.71c-7.01,0-15.36,0-19.27,0c-8.3,0-17.73,8.57-21.41,10.71c-2.03,0-4.63,0-6.44,0
		c-1.18,0-2.13,0.96-2.13,2.14v8.57l-2.14,6.42v4.28c0,2.37,1.92,4.28,4.28,4.28h8.57"/>
	<polyline class="st1" points="118.8,73.1 114.51,75.24 95.24,75.24 90.96,62.39 	"/>
	<polyline class="st1" points="95.24,75.24 71.69,73.1 69.55,70.96 	"/>
	<path class="st1" d="M120.93,94.52c0,4.73,3.84,8.56,8.57,8.56c4.73,0,8.57-3.83,8.57-8.56s-3.84-8.56-8.57-8.56
		C124.76,85.96,120.93,89.79,120.93,94.52z"/>
	<path class="st1" d="M65.26,94.52c0,4.73,3.84,8.56,8.57,8.56c4.73,0,8.57-3.83,8.57-8.56s-3.84-8.56-8.57-8.56
		C69.1,85.96,65.26,89.79,65.26,94.52z"/>
	<line class="st1" x1="133.79" y1="73.1" x2="131.65" y2="77.38"/>
	<line class="st1" x1="140.21" y1="81.67" x2="146.63" y2="83.81"/>
	<path class="st1" d="M142.35,64.68c5.32-4.07,1.03-11.57-4.28-17.27s4.55-14.63,8.57-17.13"/>
	<path class="st1" d="M131.73,58.81c-1.49-4.52-6.73-12.13-10.63-16.35c-6.38-6.91,2.21-16.97,5.4-21.31"/>
</g>
</svg>
