<?xml version="1.0" encoding="utf-8"?>
<!-- Generator: Adobe Illustrator 26.0.2, SVG Export Plug-In . SVG Version: 6.00 Build 0)  -->
<svg version="1.1" id="Слой_1" xmlns="http://www.w3.org/2000/svg" xmlns:xlink="http://www.w3.org/1999/xlink" x="0px" y="0px"
	 viewBox="0 0 110.5 110.5" style="enable-background:new 0 0 110.5 110.5;" xml:space="preserve">
<style type="text/css">
	.st0{fill:none;stroke:#344154;stroke-width:3;stroke-miterlimit:10;}
	.st1{fill:none;stroke:#344154;stroke-width:3;stroke-linecap:round;stroke-miterlimit:10;}
</style>
<g>
	<g>
		<g>
			<path class="st0" d="M55.25,1.5C25.56,1.5,1.5,25.56,1.5,55.25C1.5,84.94,25.56,109,55.25,109C84.94,109,109,84.94,109,55.25
				C109,25.56,84.94,1.5,55.25,1.5z M55.25,10.88c24.51,0,44.38,19.87,44.38,44.38c0,1.49-0.08,2.96-0.22,4.41L72.79,53.5
				c-0.88-8.91-8.39-15.88-17.54-15.88S38.59,44.59,37.71,53.5l-26.62,6.16c-0.14-1.45-0.22-2.92-0.22-4.41
				C10.88,30.74,30.74,10.88,55.25,10.88z M13.45,70.15l26.53-6.14c2.17,3.77,5.69,6.67,9.9,8.02v27.26
				C32.97,97.25,18.99,85.7,13.45,70.15z M60.62,99.29V72.03c4.22-1.35,7.73-4.25,9.9-8.02l26.53,6.14
				C91.51,85.7,77.53,97.25,60.62,99.29z"/>
			<circle class="st0" cx="55.25" cy="55.25" r="7.12"/>
		</g>
		<g>
			<path class="st1" d="M81.13,29.37c-6.62-6.62-15.78-10.72-25.88-10.72c-10.11,0-19.26,4.1-25.88,10.72"/>
		</g>
	</g>
</g>
</svg>
