<?xml version="1.0" encoding="utf-8"?>
<!-- Generator: Adobe Illustrator 26.0.2, SVG Export Plug-In . SVG Version: 6.00 Build 0)  -->
<svg version="1.1" id="Слой_1" xmlns="http://www.w3.org/2000/svg" xmlns:xlink="http://www.w3.org/1999/xlink" x="0px" y="0px"
	 viewBox="0 0 137.74 110.39" style="enable-background:new 0 0 137.74 110.39;" xml:space="preserve">
<style type="text/css">
	.st0{fill:none;stroke:#344154;stroke-width:3;stroke-linecap:round;stroke-miterlimit:10;}
	.st1{fill:none;stroke:#344154;stroke-width:3;stroke-linecap:round;stroke-linejoin:round;stroke-miterlimit:10;}
</style>
<g>
	<g>
		<path class="st0" d="M46.96,28.93h9.22v-1.62c0-1.63-1.2-3.02-2.81-3.25l-6.06-0.88"/>
		<path class="st0" d="M85.15,36.27v4.48c0,2.13,1.73,3.86,3.86,3.86h2.16c2.13,0,3.86-1.73,3.86-3.86V20.53L99,19.08
			c0.37-0.14,0.62-0.49,0.62-0.88v-3.16c0-0.52-0.42-0.94-0.94-0.94H94.2c-1.28,0-2.45-0.7-3.06-1.82L86.67,4.1
			c-0.87-1.6-2.55-2.6-4.38-2.6H68.87H55.44c-1.82,0-3.5,1-4.38,2.6l-4.46,8.18c-0.61,1.12-1.78,1.82-3.06,1.82h-4.48
			c-0.52,0-0.94,0.42-0.94,0.94v3.16c0,0.39,0.25,0.75,0.62,0.88l3.96,1.45v20.22c0,2.13,1.73,3.86,3.86,3.86h2.16
			c2.13,0,3.86-1.73,3.86-3.86v-4.48H85.15z"/>
		<polyline class="st0" points="50.95,14.17 63.69,14.17 86.78,14.17 		"/>
		<path class="st0" d="M90.42,23.17l-6.06,0.88c-1.61,0.24-2.81,1.62-2.81,3.25v1.62h9.22"/>
		<line class="st0" x1="62.13" y1="29.08" x2="75.61" y2="29.08"/>
		<polyline class="st0" points="75.61,29.08 76.22,23.74 68.87,23.74 61.51,23.74 62.13,29.08 		"/>
		<line class="st0" x1="52.59" y1="36.27" x2="48.55" y2="36.27"/>
		<line class="st0" x1="85.15" y1="36.27" x2="90.35" y2="36.27"/>
		<line class="st0" x1="52.59" y1="36.27" x2="47.38" y2="36.27"/>
	</g>
	<g>
		<g>
			<g>
				<path class="st0" d="M63.38,85.71l-2.31-8.18c-2.09-7.38-7.29-13.47-14.24-16.7l-5.74-2.66c-3.39-1.57-5.93-4.55-6.95-8.14
					l-2.78-9.8l0.22-1.65c0.44-3.29-1.1-6.54-3.92-8.29l-0.14-0.09"/>
				<path class="st0" d="M35.13,69.41c-0.41,0.06-0.81,0.1-1.21,0.14c-6.6,0.58-13.04-2.43-17.12-7.66
					C8.4,51.13,2.01,57.85,2.01,57.85s6.93,8.31,11.65,16.51c3.37,5.85,8.83,10.3,15.37,11.93c0.4,0.1,0.82,0.19,1.24,0.28
					c4.3,0.88,7.87,3.68,9.86,7.46"/>
				<path class="st0" d="M8.28,55.86L5.42,42.79l8.4-25.77c0,0,4.82,1.21,3.57,8.56l-3.81,16.77l2.6,10.6"/>
				<path class="st0" d="M16.85,19.73l2.25-6.96c0,0,6.23,2.29,4.13,10.6l-3.49,18.2l2.79,9.85"/>
				<path class="st0" d="M23.66,19.71l0.32,0.23c2.94,2.15,4.38,5.8,3.71,9.37L25.66,40.1l2.88,10.03"/>
			</g>
			<polyline class="st1" points="60.52,102.85 40.89,108.89 35.6,95.7 63.38,85.7 63.38,92.39 			"/>
			<line class="st0" x1="37.89" y1="101.4" x2="63.38" y2="92.39"/>
		</g>
	</g>
	<g>
		<g>
			<path class="st0" d="M74.36,85.71l2.31-8.18c2.09-7.38,7.29-13.47,14.24-16.7l5.74-2.66c3.39-1.57,5.93-4.55,6.95-8.14l2.78-9.8
				l-0.22-1.65c-0.44-3.29,1.1-6.54,3.92-8.29l0.14-0.09"/>
			<path class="st0" d="M102.61,69.41c0.41,0.06,0.81,0.1,1.21,0.14c6.6,0.58,13.04-2.43,17.12-7.66
				c8.4-10.75,14.79-4.04,14.79-4.04s-6.93,8.31-11.65,16.51c-3.37,5.85-8.83,10.3-15.37,11.93c-0.4,0.1-0.82,0.19-1.24,0.28
				c-4.3,0.88-7.87,3.68-9.86,7.46"/>
			<path class="st0" d="M129.46,55.86l2.86-13.07l-8.4-25.77c0,0-4.82,1.21-3.57,8.56l3.81,16.77l-2.6,10.6"/>
			<path class="st0" d="M120.89,19.73l-2.25-6.96c0,0-6.23,2.29-4.13,10.6l3.49,18.2l-2.79,9.85"/>
			<path class="st0" d="M114.08,19.71l-0.32,0.23c-2.94,2.15-4.38,5.8-3.71,9.37l2.02,10.78l-2.88,10.03"/>
		</g>
		<polyline class="st1" points="77.22,102.85 96.85,108.89 102.13,95.7 74.36,85.7 74.36,92.39 		"/>
		<line class="st0" x1="99.85" y1="101.4" x2="74.36" y2="92.39"/>
	</g>
</g>
</svg>
