<?xml version="1.0" encoding="utf-8"?>
<!-- Generator: Adobe Illustrator 26.0.2, SVG Export Plug-In . SVG Version: 6.00 Build 0)  -->
<svg version="1.1" id="Слой_1" xmlns="http://www.w3.org/2000/svg" xmlns:xlink="http://www.w3.org/1999/xlink" x="0px" y="0px"
	 viewBox="0 0 111 100.75" style="enable-background:new 0 0 111 100.75;" xml:space="preserve">
<style type="text/css">
	.st0{fill:none;stroke:#344154;stroke-width:3;stroke-miterlimit:10;}
	.st1{fill:none;stroke:#344154;stroke-width:3;stroke-linejoin:round;stroke-miterlimit:10;}
</style>
<g>
	<rect x="1.5" y="11.86" class="st0" width="108" height="10.37"/>
	<rect x="1.5" y="88.88" class="st0" width="108" height="10.37"/>
	<rect x="8.75" y="22.22" class="st0" width="93.51" height="66.66"/>
	<path class="st0" d="M33.68,1.5H20.23c-1.31,0-2.38,1.06-2.38,2.38v7.98h18.21V3.88C36.06,2.56,34.99,1.5,33.68,1.5z"/>
	<path class="st0" d="M90.77,1.5H77.32c-1.31,0-2.38,1.06-2.38,2.38v7.98h18.21V3.88C93.15,2.56,92.09,1.5,90.77,1.5z"/>
	<line class="st0" x1="26.95" y1="27.53" x2="26.95" y2="39.19"/>
	<line class="st0" x1="21.12" y1="33.36" x2="32.79" y2="33.36"/>
	<line class="st0" x1="78.21" y1="33.36" x2="89.88" y2="33.36"/>
	<g>
		<polygon class="st1" points="67.87,52.08 56.64,52 63.06,33.36 43.13,59.03 54.37,59.11 47.95,77.75 		"/>
	</g>
</g>
</svg>
