<?xml version="1.0" encoding="utf-8"?>
<!-- Generator: Adobe Illustrator 26.0.2, SVG Export Plug-In . SVG Version: 6.00 Build 0)  -->
<svg version="1.1" id="Слой_1" xmlns="http://www.w3.org/2000/svg" xmlns:xlink="http://www.w3.org/1999/xlink" x="0px" y="0px"
	 viewBox="0 0 91.73 109.31" style="enable-background:new 0 0 91.73 109.31;" xml:space="preserve">
<style type="text/css">
	.st0{fill:none;stroke:#344154;stroke-width:3;stroke-miterlimit:10;}
	.st1{fill:none;stroke:#344154;stroke-width:3;stroke-linecap:round;stroke-linejoin:round;stroke-miterlimit:10;}
</style>
<g>
	<polyline class="st0" points="90.23,25.61 84.43,30.43 81.31,26.81 72.04,35.63 67.05,30.63 55.56,40.21 49.16,33.33 45.86,35.63 
		41.47,30.63 29.68,38.02 24.08,35.43 13.89,40.62 7.89,37.82 1.5,40.62 	"/>
	<path class="st1" d="M45.86,70.16h15.27c0,0-0.36,3.9,0.41,7.73c0.59,2.94,2.75,5.54,5.94,7.18l0,0c0.89,0.46,0.48,1.54-0.59,1.54
		H45.86H24.84c-1.07,0-1.49-1.08-0.59-1.54l0,0c3.19-1.64,5.35-4.24,5.94-7.18c0.77-3.83,0.41-7.73,0.41-7.73H45.86z"/>
	<line class="st1" x1="1.5" y1="59.37" x2="90.23" y2="59.37"/>
	<path class="st1" d="M84.35,70.16H7.38c-3.25,0-5.88-2.63-5.88-5.88V7.38c0-3.25,2.63-5.88,5.88-5.88h76.97
		c3.25,0,5.88,2.63,5.88,5.88v56.9C90.23,67.53,87.6,70.16,84.35,70.16z"/>
	<polyline class="st1" points="1.5,106.59 1.5,86.61 90.23,86.61 90.23,106.59 	"/>
</g>
<g>
	<g>
		<path d="M8.43,104.39c-0.58-0.12-1.13-0.3-1.64-0.54c-0.51-0.24-0.97-0.52-1.38-0.86l1.12-1.99c0.49,0.4,1.06,0.72,1.71,0.94
			c0.64,0.22,1.31,0.33,1.99,0.33c0.79,0,1.39-0.13,1.83-0.4s0.65-0.64,0.65-1.13v-0.01c0-0.34-0.1-0.61-0.29-0.81
			s-0.45-0.35-0.76-0.44s-0.71-0.18-1.2-0.25c-0.02-0.01-0.03-0.01-0.05-0.01s-0.03,0-0.05-0.01l-0.19-0.03
			c-0.86-0.13-1.56-0.3-2.13-0.51c-0.56-0.2-1.04-0.56-1.43-1.06s-0.59-1.23-0.59-2.16v-0.01c0-0.83,0.18-1.53,0.55-2.12
			S7.48,92.3,8.18,92c0.7-0.31,1.55-0.46,2.55-0.46c0.46,0,0.92,0.05,1.4,0.16s0.94,0.26,1.4,0.46c0.46,0.2,0.89,0.44,1.3,0.72
			l-1.02,2.04c-0.49-0.34-1.01-0.6-1.54-0.79s-1.05-0.28-1.54-0.28c-0.74,0-1.31,0.12-1.71,0.36c-0.4,0.24-0.61,0.58-0.61,1.02v0.01
			c0,0.37,0.11,0.66,0.32,0.88s0.47,0.37,0.78,0.47s0.75,0.21,1.31,0.32c0.02,0.01,0.05,0.01,0.07,0.01c0.02,0,0.05,0.01,0.07,0.01
			c0.04,0.01,0.07,0.01,0.1,0.02c0.03,0.01,0.07,0.02,0.1,0.02c0.81,0.16,1.48,0.35,2.03,0.58c0.54,0.23,0.99,0.59,1.36,1.09
			c0.36,0.5,0.54,1.19,0.54,2.05v0.02c0,0.81-0.19,1.51-0.57,2.09s-0.94,1.02-1.67,1.33s-1.61,0.46-2.63,0.46
			C9.61,104.58,9.02,104.52,8.43,104.39z"/>
		<path d="M19.13,91.67h9.37v2.32h-9.37V91.67z M22.61,92.71h2.41v11.73h-2.41V92.71z"/>
		<path d="M36.81,91.67h1.53l4.89,12.78h-2.59l-3.06-8.73l-3.06,8.73h-2.59L36.81,91.67z M34.27,100.08h6.72v2.32h-6.72V100.08z"/>
		<path d="M46.65,91.67h9.37v2.32h-9.37V91.67z M50.13,92.71h2.41v11.73h-2.41V92.71z"/>
		<path d="M62.63,104.02c-0.7-0.37-1.23-0.91-1.59-1.63c-0.36-0.71-0.54-1.57-0.54-2.57v-8.16h2.41v8.22c0,0.73,0.2,1.3,0.59,1.71
			s0.95,0.61,1.66,0.61c0.72,0,1.28-0.2,1.67-0.61c0.4-0.4,0.59-0.97,0.59-1.71v-8.22h2.41v8.16c0,1-0.18,1.86-0.55,2.57
			c-0.37,0.71-0.9,1.25-1.6,1.63c-0.7,0.37-1.54,0.56-2.53,0.56S63.33,104.39,62.63,104.02z"/>
		<path d="M78.3,104.39c-0.58-0.12-1.13-0.3-1.64-0.54c-0.51-0.24-0.97-0.52-1.38-0.86l1.12-1.99c0.49,0.4,1.06,0.72,1.71,0.94
			c0.64,0.22,1.31,0.33,1.99,0.33c0.79,0,1.39-0.13,1.83-0.4s0.65-0.64,0.65-1.13v-0.01c0-0.34-0.1-0.61-0.29-0.81
			s-0.45-0.35-0.76-0.44s-0.71-0.18-1.2-0.25c-0.02-0.01-0.03-0.01-0.05-0.01s-0.03,0-0.05-0.01l-0.19-0.03
			c-0.86-0.13-1.56-0.3-2.13-0.51c-0.56-0.2-1.04-0.56-1.43-1.06s-0.59-1.23-0.59-2.16v-0.01c0-0.83,0.18-1.53,0.55-2.12
			s0.91-1.03,1.61-1.34c0.7-0.31,1.55-0.46,2.55-0.46c0.46,0,0.92,0.05,1.4,0.16s0.95,0.26,1.4,0.46s0.89,0.44,1.3,0.72l-1.02,2.04
			c-0.49-0.34-1.01-0.6-1.54-0.79c-0.54-0.19-1.05-0.28-1.54-0.28c-0.74,0-1.31,0.12-1.71,0.36c-0.4,0.24-0.61,0.58-0.61,1.02v0.01
			c0,0.37,0.11,0.66,0.32,0.88s0.47,0.37,0.78,0.47s0.75,0.21,1.31,0.32c0.02,0.01,0.05,0.01,0.07,0.01c0.02,0,0.05,0.01,0.07,0.01
			c0.04,0.01,0.07,0.01,0.1,0.02c0.03,0.01,0.07,0.02,0.1,0.02c0.81,0.16,1.48,0.35,2.03,0.58c0.54,0.23,1,0.59,1.36,1.09
			c0.36,0.5,0.54,1.19,0.54,2.05v0.02c0,0.81-0.19,1.51-0.57,2.09s-0.94,1.02-1.67,1.33c-0.73,0.3-1.61,0.46-2.63,0.46
			C79.47,104.58,78.88,104.52,78.3,104.39z"/>
	</g>
</g>
</svg>
