<?xml version="1.0" encoding="utf-8"?>
<!-- Generator: Adobe Illustrator 26.0.2, SVG Export Plug-In . SVG Version: 6.00 Build 0)  -->
<svg version="1.1" id="Слой_1" xmlns="http://www.w3.org/2000/svg" xmlns:xlink="http://www.w3.org/1999/xlink" x="0px" y="0px"
	 viewBox="0 0 127.23 81.84" style="enable-background:new 0 0 127.23 81.84;" xml:space="preserve">
<style type="text/css">
	.st0{fill:none;stroke:#344154;stroke-width:3;stroke-miterlimit:10;}
</style>
<g>
	<path class="st0" d="M19.45,21.68H3.73c-1.23,0-2.23-1-2.23-2.23V3.73c0-1.23,1-2.23,2.23-2.23h15.72c1.23,0,2.23,1,2.23,2.23
		v15.72C21.68,20.68,20.68,21.68,19.45,21.68z"/>
	<path class="st0" d="M19.45,80.34H3.73c-1.23,0-2.23-1-2.23-2.23V62.4c0-1.23,1-2.23,2.23-2.23h15.72c1.23,0,2.23,1,2.23,2.23
		v15.72C21.68,79.35,20.68,80.34,19.45,80.34z"/>
	<path class="st0" d="M54.13,21.68H38.41c-1.23,0-2.23-1-2.23-2.23V3.73c0-1.23,1-2.23,2.23-2.23h15.72c1.23,0,2.23,1,2.23,2.23
		v15.72C56.36,20.68,55.36,21.68,54.13,21.68z"/>
	<path class="st0" d="M54.13,80.34H38.41c-1.23,0-2.23-1-2.23-2.23V62.4c0-1.23,1-2.23,2.23-2.23h15.72c1.23,0,2.23,1,2.23,2.23
		v15.72C56.36,79.35,55.36,80.34,54.13,80.34z"/>
	<path class="st0" d="M88.82,21.68H73.1c-1.23,0-2.23-1-2.23-2.23V3.73c0-1.23,1-2.23,2.23-2.23h15.72c1.23,0,2.23,1,2.23,2.23
		v15.72C91.05,20.68,90.05,21.68,88.82,21.68z"/>
	<path class="st0" d="M88.82,80.34H73.1c-1.23,0-2.23-1-2.23-2.23V62.4c0-1.23,1-2.23,2.23-2.23h15.72c1.23,0,2.23,1,2.23,2.23
		v15.72C91.05,79.35,90.05,80.34,88.82,80.34z"/>
	<path class="st0" d="M123.51,80.34h-15.72c-1.23,0-2.23-1-2.23-2.23V62.4c0-1.23,1-2.23,2.23-2.23h15.72c1.23,0,2.23,1,2.23,2.23
		v15.72C125.73,79.35,124.74,80.34,123.51,80.34z"/>
	<polyline class="st0" points="11.59,39.99 115.65,39.99 115.65,60.17 	"/>
	<line class="st0" x1="11.59" y1="21.68" x2="11.59" y2="60.17"/>
	<line class="st0" x1="46.27" y1="21.68" x2="46.27" y2="60.17"/>
	<line class="st0" x1="80.96" y1="21.68" x2="80.96" y2="60.17"/>
	<line class="st0" x1="11.59" y1="9.89" x2="11.59" y2="13.29"/>
	<line class="st0" x1="11.59" y1="68.56" x2="11.59" y2="71.96"/>
	<line class="st0" x1="46.27" y1="9.89" x2="46.27" y2="13.29"/>
	<line class="st0" x1="46.27" y1="68.56" x2="46.27" y2="71.96"/>
	<line class="st0" x1="80.96" y1="9.89" x2="80.96" y2="13.29"/>
	<line class="st0" x1="80.96" y1="68.56" x2="80.96" y2="71.96"/>
	<line class="st0" x1="115.65" y1="68.56" x2="115.65" y2="71.96"/>
</g>
</svg>
