<?xml version="1.0" encoding="utf-8"?>
<!-- Generator: Adobe Illustrator 26.0.2, SVG Export Plug-In . SVG Version: 6.00 Build 0)  -->
<svg version="1.1" id="Слой_1" xmlns="http://www.w3.org/2000/svg" xmlns:xlink="http://www.w3.org/1999/xlink" x="0px" y="0px"
	 viewBox="0 0 120.5 109.97" style="enable-background:new 0 0 120.5 109.97;" xml:space="preserve">
<style type="text/css">
	.st0{fill:none;stroke:#344154;stroke-width:3;stroke-linecap:round;stroke-miterlimit:10;}
	.st1{fill:none;stroke:#344154;stroke-width:3;stroke-miterlimit:10;}
</style>
<g>
	<path class="st0" d="M18.39,82.94h17.62v-3.1c0-3.12-2.29-5.76-5.37-6.21l-11.57-1.69"/>
	<path class="st1" d="M38.7,30.53h-4.1c-3.49,0-6.69,1.9-8.36,4.96L17.7,51.13c-1.17,2.14-3.41,3.47-5.85,3.47H3.3
		c-0.99,0-1.8,0.8-1.8,1.8v6.04c0,0.75,0.47,1.43,1.18,1.69l7.57,2.77v34.2c0,4.08,3.3,7.38,7.38,7.38h4.12
		c4.08,0,7.38-3.3,7.38-7.38v-4.12h62.23v4.12c0,4.08,3.3,7.38,7.38,7.38h4.12c4.08,0,7.38-3.3,7.38-7.38v-34.2l7.57-2.77
		c0.71-0.26,1.18-0.93,1.18-1.69V56.4c0-0.99-0.8-1.8-1.8-1.8h-8.56c-2.44,0-4.68-1.33-5.85-3.47l-8.53-15.64
		c-1.67-3.06-4.88-4.96-8.36-4.96h-4.1"/>
	<path class="st1" d="M43.26,38.78h-6.98c-0.95,0-1.83,0.52-2.29,1.36l-7.97,14.61h24.34h44.12l-7.97-14.61
		c-0.46-0.84-1.33-1.36-2.29-1.36h-6.98"/>
	<path class="st0" d="M101.44,71.94l-11.57,1.69c-3.09,0.45-5.37,3.09-5.37,6.21v3.1h17.62"/>
	<line class="st0" x1="47.37" y1="83.22" x2="73.13" y2="83.22"/>
	<polyline class="st0" points="73.13,83.22 74.31,73.02 60.25,73.02 46.19,73.02 47.37,83.22 	"/>
	<line class="st0" x1="29.14" y1="96.97" x2="21.42" y2="96.97"/>
	<line class="st0" x1="91.36" y1="96.97" x2="99.08" y2="96.97"/>
	
		<ellipse transform="matrix(0.3827 -0.9239 0.9239 0.3827 15.0085 70.4872)" class="st0" cx="60.25" cy="24.01" rx="22.51" ry="22.51"/>
</g>
<g>
	<g>
		<path d="M47,23.16v3.95h-1.93v-3.95l-3.01-6.29h2.02l1.96,4.41l1.96-4.41h2.02L47,23.16z"/>
		<path d="M50.78,16.87h1.93v10.24h-1.93V16.87z M51.48,16.87h6.16v1.86h-6.16V16.87z M51.48,21.09h5.39v1.86h-5.39V21.09z
			 M51.48,25.25h6.16v1.86h-6.16V25.25z"/>
		<path d="M62.33,16.87h1.23l3.92,10.24H65.4l-2.45-6.99l-2.45,6.99h-2.08L62.33,16.87z M60.3,23.61h5.39v1.86H60.3V23.61z"/>
		<path d="M68.74,16.86h1.93v10.25h-1.93V16.86z M69.51,21.13h3.56c0.2,0,0.37-0.05,0.52-0.15s0.27-0.24,0.35-0.42
			s0.13-0.39,0.13-0.63c0-0.24-0.04-0.45-0.12-0.63s-0.2-0.32-0.35-0.42s-0.33-0.15-0.53-0.15h-3.56v-1.86h3.72
			c0.56,0,1.06,0.13,1.49,0.38c0.43,0.25,0.76,0.61,0.99,1.07c0.23,0.46,0.35,1,0.35,1.61s-0.12,1.15-0.35,1.61
			c-0.24,0.46-0.57,0.82-1,1.07s-0.92,0.38-1.48,0.38h-3.72V21.13z M71.67,22.67l2.06-0.32l2.76,4.76h-2.34L71.67,22.67z"/>
	</g>
</g>
</svg>
