<?xml version="1.0" encoding="utf-8"?>
<!-- Generator: Adobe Illustrator 26.0.2, SVG Export Plug-In . SVG Version: 6.00 Build 0)  -->
<svg version="1.1" id="Слой_1" xmlns="http://www.w3.org/2000/svg" xmlns:xlink="http://www.w3.org/1999/xlink" x="0px" y="0px"
	 viewBox="0 0 47.81 43.54" style="enable-background:new 0 0 47.81 43.54;" xml:space="preserve">
<style type="text/css">
	.st0{fill:none;stroke:#515151;stroke-width:2;stroke-linecap:round;stroke-linejoin:round;stroke-miterlimit:10;}
	.st1{fill:none;stroke:#515151;stroke-width:2;stroke-miterlimit:10;}
	.st2{fill:none;stroke:#515151;stroke-width:2;stroke-linejoin:round;stroke-miterlimit:10;}
</style>
<g>
	<path class="st0" d="M21,21.54H7c-1.66,0-3,1.34-3,3v4.18c0,1.18,0.35,2.34,1.01,3.33L6,33.54l-4,1c-0.55,0-1,0.45-1,1v2
		c0,0.55,0.45,1,1,1h5l2-3l3-1h9"/>
	<path class="st1" d="M7,30.54L7.54,30c0.94-0.94,2.21-1.46,3.54-1.46H14"/>
	<path class="st2" d="M5,22.54v-4c0-0.55,0.45-1,1-1h7c0.55,0,1,0.45,1,1v3"/>
	<path class="st0" d="M21,21.54h14c1.66,0,3,1.34,3,3v4.18c0,1.18-0.35,2.34-1.01,3.33L36,33.54l4,1c0.55,0,1,0.45,1,1v2
		c0,0.55-0.45,1-1,1h-5l-2-3l-3-1h-9"/>
	<path class="st1" d="M34,36.54c0,0-2.54,4.46-3,5c-0.46,0.54-1.3,1-2,1c-1.56,0-13.88,0-16,0c-0.7,0-1.54-0.46-2-1
		c-0.46-0.54-3-5-3-5"/>
	<path class="st1" d="M35,30.54L34.46,30c-0.94-0.94-2.21-1.46-3.54-1.46H28"/>
	<path class="st2" d="M37,22.54v-4c0-0.55-0.45-1-1-1h-7c-0.55,0-1,0.45-1,1v3"/>
	<line class="st1" x1="14" y1="25.54" x2="28" y2="25.54"/>
	<polyline class="st1" points="29,14.54 26,8.54 32,9.54 35,2.54 38,9.54 46,7.54 41.6,16.83 45.53,20.21 40.9,22.54 	"/>
</g>
</svg>
