<?xml version="1.0" encoding="utf-8"?>
<!-- Generator: Adobe Illustrator 26.0.2, SVG Export Plug-In . SVG Version: 6.00 Build 0)  -->
<svg version="1.1" id="Слой_1" xmlns="http://www.w3.org/2000/svg" xmlns:xlink="http://www.w3.org/1999/xlink" x="0px" y="0px"
	 viewBox="0 0 39 47.97" style="enable-background:new 0 0 39 47.97;" xml:space="preserve">
<style type="text/css">
	.st0{fill:none;stroke:#515151;stroke-width:2;stroke-miterlimit:10;}
	.st1{fill:none;stroke:#515151;stroke-width:2;stroke-linecap:round;stroke-linejoin:round;stroke-miterlimit:10;}
</style>
<g>
	<path class="st0" d="M32,32.97l-1.32-2.95c-0.41-1.23-1.55-2.05-2.85-2.05H22h-5.84c-1.29,0-2.44,0.83-2.85,2.05L12,32.97"/>
	<polyline class="st0" points="17,40.97 22,40.97 27,40.97 	"/>
	<path class="st0" d="M37,31.97h-3c-0.33,0-3.03,3-5,3H15c-1.97,0-4.67-3-5-3H7c-0.55,0-1,0.45-1,1v1.34c0,0.55,0.45,1,1,1l2,0.66v1
		c-0.64,0.64-1,1.51-1,2.41v1.59c0,0.89,0.39,1.67,1,2.22v2.78c0,0.55,0.45,1,1,1h4c0.55,0,1-0.45,1-1v-2h14v2c0,0.55,0.45,1,1,1h4
		c0.55,0,1-0.45,1-1v-2.78c0.61-0.55,1-1.34,1-2.22v-1.59c0-0.91-0.36-1.77-1-2.41v-1l2-0.66c0.55,0,1-0.45,1-1v-1.34
		C38,32.41,37.55,31.97,37,31.97z"/>
	<path class="st0" d="M32.59,37.35c-1.23,1.04-2.96,1.62-4.59,1.62"/>
	<path class="st0" d="M11.41,37.35c1.23,1.04,2.96,1.62,4.59,1.62"/>
	<line class="st0" x1="15" y1="43.97" x2="11" y2="43.97"/>
	<line class="st0" x1="33" y1="43.97" x2="29" y2="43.97"/>
	<path class="st1" d="M22.83,24.76c2.88-3.25,2.81-7.21-0.41-10.79c1.49,2.91-3.11,6.98-6.91,3.82C11.17,14.17,22.21,9.1,9.66,1
		c3.45,9.02-12.79,11.54-7.64,22.27c1.42,2.97,4.32,4.82,7.27,5.63"/>
</g>
</svg>
