<?xml version="1.0" encoding="utf-8"?>
<!-- Generator: Adobe Illustrator 26.0.2, SVG Export Plug-In . SVG Version: 6.00 Build 0)  -->
<svg version="1.1" id="Слой_1" xmlns="http://www.w3.org/2000/svg" xmlns:xlink="http://www.w3.org/1999/xlink" x="0px" y="0px"
	 viewBox="0 0 48 48.18" style="enable-background:new 0 0 48 48.18;" xml:space="preserve">
<style type="text/css">
	.st0{fill:none;stroke:#515151;stroke-width:2;stroke-miterlimit:10;}
	.st1{fill:none;stroke:#515151;stroke-width:2;stroke-linejoin:round;stroke-miterlimit:10;}
</style>
<g>
	<path class="st0" d="M21,21.18c-4.44,0-6.9,0.42-8.88,0.83c-1.01,0.21-1.82,0.49-2.21,1.39c-0.28,0.65-1.77,4.48-1.77,4.48"/>
	<path class="st0" d="M7,34.18L7,34.18c1.28,1.28,3.02,2,4.83,2H14"/>
	<path class="st0" d="M5,42.18v4c0,0.55,0.45,1,1,1h7c0.55,0,1-0.45,1-1v-3"/>
	<line class="st0" x1="21" y1="39.18" x2="14" y2="39.18"/>
	<path class="st0" d="M21,30.18c0,0,8.31,0,9,0c1.23,0,3.19-1.31,3.38-1.57l1.32-1.98c0.19-0.28,0.5-0.45,0.83-0.45H40
		c0.55,0,1,0.45,1,1v2c0,0.55-0.45,1-1,1l-2.62,0.66c-0.67,0.17-0.97,0.95-0.59,1.52l1.04,1.57C37.94,34.1,38,34.68,38,35.18v5
		c0,1.66-1.34,3-3,3H7c-1.66,0-3-1.34-3-3v-5c0-0.5,0.06-1.09,0.17-1.25l1.05-1.57c0.38-0.58,0.08-1.36-0.59-1.52L2,30.18
		c-0.55,0-1-0.45-1-1v-2c0-0.55,0.45-1,1-1h4.46c0.33,0,0.65,0.17,0.83,0.45l1.32,1.98c0.19,0.27,2.15,1.57,3.38,1.57
		C12.69,30.18,21,30.18,21,30.18z"/>
	<path class="st0" d="M21,21.18c4.44,0,6.9,0.42,8.88,0.83c1.01,0.21,1.82,0.49,2.21,1.39c0.28,0.65,1.77,4.48,1.77,4.48"/>
	<path class="st0" d="M35,34.18L35,34.18c-1.28,1.28-3.02,2-4.83,2H28"/>
	<path class="st0" d="M37,42.18v4c0,0.55-0.45,1-1,1h-7c-0.55,0-1-0.45-1-1v-3"/>
	<line class="st0" x1="21" y1="39.18" x2="28" y2="39.18"/>
	<polygon class="st1" points="41.17,9.93 42.91,1.17 33.33,14.27 39.16,13.52 37.43,22.28 47,9.18 	"/>
	<polyline class="st1" points="34.54,7.52 29.76,9.84 28.1,1 23.96,16.85 29.16,14.09 29.95,18.97 	"/>
	<polyline class="st1" points="23,9.26 18.93,11.35 17.35,3.77 14.06,17.47 18.49,15.01 19.26,19.18 	"/>
</g>
</svg>
