<?xml version="1.0" encoding="utf-8"?>
<!-- Generator: Adobe Illustrator 26.0.2, SVG Export Plug-In . SVG Version: 6.00 Build 0)  -->
<svg version="1.1" id="Слой_1" xmlns="http://www.w3.org/2000/svg" xmlns:xlink="http://www.w3.org/1999/xlink" x="0px" y="0px"
	 viewBox="0 0 48 32" style="enable-background:new 0 0 48 32;" xml:space="preserve">
<style type="text/css">
	.st0{fill:none;stroke:#515151;stroke-width:2;stroke-linejoin:round;stroke-miterlimit:10;}
</style>
<g>
	<polyline class="st0" points="18,14 12.53,9 19,8 18,1 24,7 30,1 30,8 35,7 31,12.13 	"/>
	<line class="st0" x1="0" y1="27" x2="11" y2="27"/>
	<path class="st0" d="M19,27h6v-5l-1-3c0,0-5.03-1.56-12-3c-2.71-3.23-7.12-5-9-5c-1.05,0-3,0-3,0"/>
	<polyline class="st0" points="10,17 8,18 0,18 	"/>
	<path class="st0" d="M10.99,27c0,2.21,1.79,4,4,4c2.21,0,4-1.79,4-4s-1.79-4-4-4C12.79,23.01,10.99,24.79,10.99,27z"/>
	<line class="st0" x1="42" y1="27" x2="48" y2="27"/>
	<path class="st0" d="M48,11h-4c-3.88,0-9.28,3.75-11,5c-0.95,0-2.16,0-3.01,0C29.44,16,29,16.45,29,17v4l-1,2v2c0,1.1,0.9,2,2,2h4"
		/>
	<polyline class="st0" points="48,18 37,18 36,17 	"/>
	<path class="st0" d="M34,27c0,2.21,1.79,4,4,4c2.21,0,4-1.79,4-4s-1.79-4-4-4C35.79,23.01,34,24.79,34,27z"/>
</g>
</svg>
