<?xml version="1.0" encoding="utf-8"?>
<!-- Generator: Adobe Illustrator 26.0.2, SVG Export Plug-In . SVG Version: 6.00 Build 0)  -->
<svg version="1.1" id="Слой_1" xmlns="http://www.w3.org/2000/svg" xmlns:xlink="http://www.w3.org/1999/xlink" x="0px" y="0px"
	 viewBox="0 0 48 48" style="enable-background:new 0 0 48 48;" xml:space="preserve">
<style type="text/css">
	.st0{fill:none;stroke:#515151;stroke-width:2;stroke-linejoin:round;stroke-miterlimit:10;}
	.st1{fill:none;stroke:#515151;stroke-width:2;stroke-miterlimit:10;}
</style>
<g>
	<path class="st0" d="M15,43c1.29,0,18,0,18,0"/>
	<path class="st0" d="M41,43h6v-5l-1-3c0,0-5.03-1.56-12-3c-2.71-3.23-7.12-5-9-5c-3.27,0-6.17,0-8,0c-3.88,0-9.28,4-11,5
		c-0.95,0-2.16,0-3.01,0C2.44,32,2,32.45,2,33v4l-1,2v2c0,1.1,0.9,2,2,2h4"/>
	<polyline class="st0" points="32,33 30,34 21,34 19,29 	"/>
	<polyline class="st0" points="21,34 10,34 9,33 	"/>
	<path class="st0" d="M32.99,43c0,2.21,1.79,4,4,4c2.21,0,4-1.79,4-4c0-2.21-1.79-4-4-4C34.79,39.01,32.99,40.79,32.99,43z"/>
	<path class="st0" d="M7,43c0,2.21,1.79,4,4,4c2.21,0,4-1.79,4-4c0-2.21-1.79-4-4-4C8.79,39.01,7,40.79,7,43z"/>
	<path class="st1" d="M25.97,7.98c0,1.65-1.33,2.98-2.98,2.98c-1.65,0-2.98-1.33-2.98-2.98c0-1.65,1.33-2.98,2.98-2.98
		C24.64,5,25.97,6.33,25.97,7.98z"/>
	<path class="st1" d="M29.19,11.76l2.5,10c0.16,0.63-0.32,1.24-0.97,1.24H15.28c-0.65,0-1.13-0.61-0.97-1.24l2.5-10
		c0.11-0.45,0.51-0.76,0.97-0.76h10.44C28.68,11,29.08,11.31,29.19,11.76z"/>
	<line class="st1" x1="11" y1="14" x2="11" y2="6"/>
	<line class="st1" x1="34" y1="15" x2="34" y2="7"/>
	<line class="st1" x1="34" y1="5" x2="34" y2="3"/>
	<line class="st1" x1="16" y1="7" x2="16" y2="0"/>
</g>
</svg>
