<?xml version="1.0" encoding="utf-8"?>
<!-- Generator: Adobe Illustrator 26.0.2, SVG Export Plug-In . SVG Version: 6.00 Build 0)  -->
<svg version="1.1" id="Слой_1" xmlns="http://www.w3.org/2000/svg" xmlns:xlink="http://www.w3.org/1999/xlink" x="0px" y="0px"
	 viewBox="0 0 48 32" style="enable-background:new 0 0 48 32;" xml:space="preserve">
<style type="text/css">
	.st0{fill:none;stroke:#515151;stroke-width:2;stroke-linejoin:round;stroke-miterlimit:10;}
	.st1{fill:none;stroke:#515151;stroke-width:2;stroke-miterlimit:10;}
</style>
<g>
	<polyline class="st0" points="18,14 12.53,9 19,8 18,1 24,7 30,1 30,8 35,7 31,12.13 	"/>
	<path class="st0" d="M0,27c4.65,0,11,0,11,0"/>
	<path class="st0" d="M19,27h6v-5l-1-3c0,0-5.03-1.56-12-3c-2.71-3.23-7.12-5-9-5c-1.05,0-3,0-3,0"/>
	<polyline class="st0" points="10,17 8,18 0,18 	"/>
	<path class="st0" d="M10.99,27c0,2.21,1.79,4,4,4c2.21,0,4-1.79,4-4s-1.79-4-4-4C12.79,23.01,10.99,24.79,10.99,27z"/>
	<path class="st1" d="M48,11h-8.84c-1.29,0-2.44,0.83-2.85,2.05L35,16"/>
	<line class="st1" x1="42" y1="24" x2="48" y2="24"/>
	<path class="st1" d="M48,18H38c-1.97,0-4.67-3-5-3h-3c-0.55,0-1,0.45-1,1v1.34c0,0.55,0.45,1,1,1L32,19v1c-0.64,0.64-1,1.51-1,2.41
		V24c0,0.89,0.39,1.67,1,2.22V30c0,0.55,0.45,1,1,1h4c0.55,0,1-0.45,1-1v-3h10"/>
	<path class="st1" d="M35,21c1.23,1.04,2.38,1,4,1h1"/>
	<line class="st1" x1="38" y1="27" x2="32" y2="27"/>
</g>
</svg>
