<?xml version="1.0" encoding="utf-8"?>
<!-- Generator: Adobe Illustrator 26.0.2, SVG Export Plug-In . SVG Version: 6.00 Build 0)  -->
<svg version="1.1" id="Слой_1" xmlns="http://www.w3.org/2000/svg" xmlns:xlink="http://www.w3.org/1999/xlink" x="0px" y="0px"
	 viewBox="0 0 47.64 31.71" style="enable-background:new 0 0 47.64 31.71;" xml:space="preserve">
<style type="text/css">
	.st0{fill:none;stroke:#515151;stroke-width:2;stroke-miterlimit:10;}
</style>
<g>
	<path class="st0" d="M21,1c-4.44,0-6.9,0.42-8.88,0.83c-1.01,0.21-1.82,0.49-2.21,1.39C9.63,3.88,8.14,7.71,8.14,7.71"/>
	<path class="st0" d="M7,14L7,14c1.28,1.28,3.02,2,4.83,2H14"/>
	<path class="st0" d="M5,22v4c0,0.55,0.45,1,1,1h7c0.55,0,1-0.45,1-1v-3"/>
	<line class="st0" x1="21" y1="19" x2="14" y2="19"/>
	<path class="st0" d="M21,10c0,0,8.31,0,9,0c1.23,0,3.19-1.31,3.38-1.57l1.32-1.98C34.89,6.17,35.2,6,35.54,6H40c0.55,0,1,0.45,1,1
		v2c0,0.55-0.45,1-1,1l-2.62,0.66c-0.67,0.17-0.97,0.95-0.59,1.52l1.04,1.57C37.94,13.91,38,14.5,38,15v5c0,1.66-1.34,3-3,3H7
		c-1.66,0-3-1.34-3-3v-5c0-0.5,0.06-1.09,0.17-1.25l1.05-1.57c0.38-0.58,0.08-1.36-0.59-1.52L2,10c-0.55,0-1-0.45-1-1V7
		c0-0.55,0.45-1,1-1h4.46C6.8,6,7.11,6.17,7.3,6.45l1.32,1.98C8.81,8.69,10.77,10,12,10C12.69,10,21,10,21,10z"/>
	<path class="st0" d="M21,1c4.44,0,6.9,0.42,8.88,0.83c1.01,0.21,1.82,0.49,2.21,1.39c0.28,0.65,1.77,4.48,1.77,4.48"/>
	<path class="st0" d="M35,14L35,14c-1.28,1.28-3.02,2-4.83,2H28"/>
	<path class="st0" d="M37,26c0,0.55-0.45,1-1,1h-7c-0.55,0-1-0.45-1-1v-3"/>
	<line class="st0" x1="21" y1="19" x2="28" y2="19"/>
	<line class="st0" x1="41" y1="20" x2="47" y2="15"/>
	<line class="st0" x1="40" y1="24" x2="46" y2="24"/>
	<line class="st0" x1="40" y1="27" x2="44" y2="31"/>
</g>
</svg>
