<?xml version="1.0" encoding="utf-8"?>
<!-- Generator: Adobe Illustrator 26.0.2, SVG Export Plug-In . SVG Version: 6.00 Build 0)  -->
<svg version="1.1" id="Слой_1" xmlns="http://www.w3.org/2000/svg" xmlns:xlink="http://www.w3.org/1999/xlink" x="0px" y="0px"
	 viewBox="0 0 45.68 38.68" style="enable-background:new 0 0 45.68 38.68;" xml:space="preserve">
<style type="text/css">
	.st0{fill:none;stroke:#515151;stroke-width:2;stroke-miterlimit:10;}
	.st1{fill:none;stroke:#515151;stroke-width:2;stroke-linejoin:round;stroke-miterlimit:10;}
</style>
<g>
	<path class="st0" d="M45.68,30.68c-0.48,0-0.96-0.2-1.36-0.6l-1.81-1.79c-0.82-0.81-1.94-0.81-2.76,0.02l-1.73,1.75
		c-0.4,0.4-0.87,0.61-1.35,0.62c-0.48,0-0.96-0.2-1.36-0.6l-1.81-1.79c-0.82-0.81-1.94-0.81-2.76,0.02l-1.73,1.75
		c-0.4,0.4-0.87,0.61-1.35,0.62c-0.48,0-0.96-0.2-1.36-0.6l-1.81-1.79c-0.82-0.81-1.94-0.81-2.76,0.02l-1.73,1.75
		c-0.4,0.4-0.87,0.61-1.35,0.62c-0.48,0-0.96-0.2-1.36-0.6l-1.81-1.79c-0.82-0.81-1.94-0.81-2.76,0.02l-1.73,1.75
		c-0.4,0.4-0.87,0.61-1.35,0.62c-0.48,0-0.96-0.2-1.36-0.6l-1.81-1.79c-0.82-0.81-1.94-0.81-2.76,0.02l-1.73,1.75
		c-0.4,0.4-0.87,0.61-1.35,0.62"/>
	<path class="st0" d="M45.68,37.68c-0.48,0-0.96-0.2-1.36-0.6l-1.81-1.79c-0.82-0.81-1.94-0.81-2.76,0.02l-1.73,1.75
		c-0.4,0.4-0.87,0.61-1.35,0.62c-0.48,0-0.96-0.2-1.36-0.6l-1.81-1.79c-0.82-0.81-1.94-0.81-2.76,0.02l-1.73,1.75
		c-0.4,0.4-0.87,0.61-1.35,0.62c-0.48,0-0.96-0.2-1.36-0.6l-1.81-1.79c-0.82-0.81-1.94-0.81-2.76,0.02l-1.73,1.75
		c-0.4,0.4-0.87,0.61-1.35,0.62c-0.48,0-0.96-0.2-1.36-0.6l-1.81-1.79c-0.82-0.81-1.94-0.81-2.76,0.02l-1.73,1.75
		c-0.4,0.4-0.87,0.61-1.35,0.62c-0.48,0-0.96-0.2-1.36-0.6l-1.81-1.79c-0.82-0.81-1.94-0.81-2.76,0.02l-1.73,1.75
		c-0.4,0.4-0.87,0.61-1.35,0.62"/>
	<path class="st1" d="M10.07,17.56c0.61,0.61,6.04,6.04,9.61,9.61"/>
	<path class="st1" d="M32.87,25.68c-0.5-0.79-1.03-1.61-1.59-2.46c0.37-4.2-1.5-8.57-2.83-9.9C26.14,11,24.09,8.95,22.8,7.66
		c-2.74-2.74-9.39-3.73-11.31-4.24c-0.67-0.67-1.53-1.53-2.13-2.13C8.97,0.9,8.34,0.9,7.95,1.3L5.12,4.12L3,4.83L1.59,6.25
		c-0.78,0.78-0.78,2.05,0,2.83l2.83,2.83"/>
	<polyline class="st1" points="29.16,22.51 27.04,21.8 20.68,15.44 22.8,10.49 	"/>
	<polyline class="st1" points="20.68,15.44 12.68,7.66 12.68,6.68 	"/>
	<path class="st1" d="M4.41,11.9c-1.56,1.56-1.56,4.09,0,5.66c1.56,1.56,4.1,1.56,5.66,0s1.56-4.09,0-5.66
		C8.51,10.35,5.97,10.34,4.41,11.9z"/>
</g>
</svg>
